  0
SECTION
  2
HEADER
  9
$ACADVER
  1
AC1032
  9
$ACADMAINTVER
 90
      266
  9
$DWGCODEPAGE
  3
ANSI_1252
  9
$REQUIREDVERSIONS
160
                 0
  9
$INSBASE
 10
0.0
 20
0.0
 30
0.0
  9
$EXTMIN
 10
1.000000000000000E+20
 20
1.000000000000000E+20
 30
1.000000000000000E+20
  9
$EXTMAX
 10
-1.000000000000000E+20
 20
-1.000000000000000E+20
 30
-1.000000000000000E+20
  9
$LIMMIN
 10
0.0
 20
0.0
  9
$LIMMAX
 10
12.0
 20
9.0
  9
$ORTHOMODE
 70
     0
  9
$REGENMODE
 70
     1
  9
$FILLMODE
 70
     1
  9
$QTEXTMODE
 70
     0
  9
$MIRRTEXT
 70
     0
  9
$LTSCALE
 40
1.0
  9
$ATTMODE
 70
     1
  9
$TEXTSIZE
 40
0.2
  9
$TRACEWID
 40
0.05
  9
$TEXTSTYLE
  7
Standard
  9
$CLAYER
  8
0
  9
$CELTYPE
  6
ByLayer
  9
$CECOLOR
 62
   256
  9
$CELTSCALE
 40
1.0
  9
$DISPSILH
 70
     0
  9
$DIMSCALE
 40
1.0
  9
$DIMASZ
 40
0.18
  9
$DIMEXO
 40
0.0625
  9
$DIMDLI
 40
0.38
  9
$DIMRND
 40
0.0
  9
$DIMDLE
 40
0.0
  9
$DIMEXE
 40
0.18
  9
$DIMTP
 40
0.0
  9
$DIMTM
 40
0.0
  9
$DIMTXT
 40
0.18
  9
$DIMCEN
 40
0.09
  9
$DIMTSZ
 40
0.0
  9
$DIMTOL
 70
     0
  9
$DIMLIM
 70
     0
  9
$DIMTIH
 70
     1
  9
$DIMTOH
 70
     1
  9
$DIMSE1
 70
     0
  9
$DIMSE2
 70
     0
  9
$DIMTAD
 70
     0
  9
$DIMZIN
 70
     0
  9
$DIMBLK
  1

  9
$DIMASO
 70
     1
  9
$DIMSHO
 70
     1
  9
$DIMPOST
  1

  9
$DIMAPOST
  1

  9
$DIMALT
 70
     0
  9
$DIMALTD
 70
     2
  9
$DIMALTF
 40
25.4
  9
$DIMLFAC
 40
1.0
  9
$DIMTOFL
 70
     0
  9
$DIMTVP
 40
0.0
  9
$DIMTIX
 70
     0
  9
$DIMSOXD
 70
     0
  9
$DIMSAH
 70
     0
  9
$DIMBLK1
  1

  9
$DIMBLK2
  1

  9
$DIMSTYLE
  2
Standard
  9
$DIMCLRD
 70
     0
  9
$DIMCLRE
 70
     0
  9
$DIMCLRT
 70
     0
  9
$DIMTFAC
 40
1.0
  9
$DIMGAP
 40
0.09
  9
$DIMJUST
 70
     0
  9
$DIMSD1
 70
     0
  9
$DIMSD2
 70
     0
  9
$DIMTOLJ
 70
     1
  9
$DIMTZIN
 70
     0
  9
$DIMALTZ
 70
     0
  9
$DIMALTTZ
 70
     0
  9
$DIMUPT
 70
     0
  9
$DIMDEC
 70
     4
  9
$DIMTDEC
 70
     4
  9
$DIMALTU
 70
     2
  9
$DIMALTTD
 70
     2
  9
$DIMTXSTY
  7
Standard
  9
$DIMAUNIT
 70
     0
  9
$DIMADEC
 70
     0
  9
$DIMALTRND
 40
0.0
  9
$DIMAZIN
 70
     0
  9
$DIMDSEP
 70
    46
  9
$DIMATFIT
 70
     3
  9
$DIMFRAC
 70
     0
  9
$DIMLDRBLK
  1

  9
$DIMLUNIT
 70
     2
  9
$DIMLWD
 70
    -2
  9
$DIMLWE
 70
    -2
  9
$DIMTMOVE
 70
     0
  9
$DIMFXL
 40
1.0
  9
$DIMFXLON
 70
     0
  9
$DIMJOGANG
 40
0.7853981633974483
  9
$DIMTFILL
 70
     0
  9
$DIMTFILLCLR
 70
     0
  9
$DIMARCSYM
 70
     0
  9
$DIMLTYPE
  6

  9
$DIMLTEX1
  6

  9
$DIMLTEX2
  6

  9
$DIMTXTDIRECTION
 70
     0
  9
$LUNITS
 70
     2
  9
$LUPREC
 70
     4
  9
$SKETCHINC
 40
0.1
  9
$FILLETRAD
 40
0.0
  9
$AUNITS
 70
     0
  9
$AUPREC
 70
     0
  9
$MENU
  1
.
  9
$ELEVATION
 40
0.0
  9
$PELEVATION
 40
0.0
  9
$THICKNESS
 40
0.0
  9
$LIMCHECK
 70
     0
  9
$CHAMFERA
 40
0.0
  9
$CHAMFERB
 40
0.0
  9
$CHAMFERC
 40
0.0
  9
$CHAMFERD
 40
0.0
  9
$SKPOLY
 70
     0
  9
$TDCREATE
 40
2461240.593784722
  9
$TDUCREATE
 40
2461240.468784722
  9
$TDUPDATE
 40
2461240.593784722
  9
$TDUUPDATE
 40
2461240.468784722
  9
$TDINDWG
 40
0.0000000000
  9
$TDUSRTIMER
 40
0.0000000000
  9
$USRTIMER
 70
     1
  9
$ANGBASE
 50
0.0
  9
$ANGDIR
 70
     0
  9
$PDMODE
 70
     0
  9
$PDSIZE
 40
0.0
  9
$PLINEWID
 40
0.0
  9
$SPLFRAME
 70
     0
  9
$SPLINETYPE
 70
     6
  9
$SPLINESEGS
 70
     8
  9
$HANDSEED
  5
92
  9
$SURFTAB1
 70
     6
  9
$SURFTAB2
 70
     6
  9
$SURFTYPE
 70
     6
  9
$SURFU
 70
     6
  9
$SURFV
 70
     6
  9
$UCSBASE
  2

  9
$UCSNAME
  2

  9
$UCSORG
 10
0.0
 20
0.0
 30
0.0
  9
$UCSXDIR
 10
1.0
 20
0.0
 30
0.0
  9
$UCSYDIR
 10
0.0
 20
1.0
 30
0.0
  9
$UCSORTHOREF
  2

  9
$UCSORTHOVIEW
 70
     0
  9
$UCSORGTOP
 10
0.0
 20
0.0
 30
0.0
  9
$UCSORGBOTTOM
 10
0.0
 20
0.0
 30
0.0
  9
$UCSORGLEFT
 10
0.0
 20
0.0
 30
0.0
  9
$UCSORGRIGHT
 10
0.0
 20
0.0
 30
0.0
  9
$UCSORGFRONT
 10
0.0
 20
0.0
 30
0.0
  9
$UCSORGBACK
 10
0.0
 20
0.0
 30
0.0
  9
$PUCSBASE
  2

  9
$PUCSNAME
  2

  9
$PUCSORG
 10
0.0
 20
0.0
 30
0.0
  9
$PUCSXDIR
 10
1.0
 20
0.0
 30
0.0
  9
$PUCSYDIR
 10
0.0
 20
1.0
 30
0.0
  9
$PUCSORTHOREF
  2

  9
$PUCSORTHOVIEW
 70
     0
  9
$PUCSORGTOP
 10
0.0
 20
0.0
 30
0.0
  9
$PUCSORGBOTTOM
 10
0.0
 20
0.0
 30
0.0
  9
$PUCSORGLEFT
 10
0.0
 20
0.0
 30
0.0
  9
$PUCSORGRIGHT
 10
0.0
 20
0.0
 30
0.0
  9
$PUCSORGFRONT
 10
0.0
 20
0.0
 30
0.0
  9
$PUCSORGBACK
 10
0.0
 20
0.0
 30
0.0
  9
$USERI1
 70
     0
  9
$USERI2
 70
     0
  9
$USERI3
 70
     0
  9
$USERI4
 70
     0
  9
$USERI5
 70
     0
  9
$USERR1
 40
0.0
  9
$USERR2
 40
0.0
  9
$USERR3
 40
0.0
  9
$USERR4
 40
0.0
  9
$USERR5
 40
0.0
  9
$WORLDVIEW
 70
     1
  9
$SHADEDGE
 70
     3
  9
$SHADEDIF
 70
    70
  9
$TILEMODE
 70
     1
  9
$MAXACTVP
 70
    64
  9
$PINSBASE
 10
0.0
 20
0.0
 30
0.0
  9
$PLIMCHECK
 70
     0
  9
$PEXTMIN
 10
1.000000000000000E+20
 20
1.000000000000000E+20
 30
1.000000000000000E+20
  9
$PEXTMAX
 10
-1.000000000000000E+20
 20
-1.000000000000000E+20
 30
-1.000000000000000E+20
  9
$PLIMMIN
 10
0.0
 20
0.0
  9
$PLIMMAX
 10
12.0
 20
9.0
  9
$UNITMODE
 70
     0
  9
$VISRETAIN
 70
     1
  9
$PLINEGEN
 70
     0
  9
$PSLTSCALE
 70
     1
  9
$TREEDEPTH
 70
  3020
  9
$CMLSTYLE
  2
Standard
  9
$CMLJUST
 70
     0
  9
$CMLSCALE
 40
1.0
  9
$PROXYGRAPHICS
 70
     1
  9
$MEASUREMENT
 70
     0
  9
$CELWEIGHT
370
    -1
  9
$ENDCAPS
280
     0
  9
$JOINSTYLE
280
     0
  9
$LWDISPLAY
290
     1
  9
$INSUNITS
 70
     0
  9
$HYPERLINKBASE
  1

  9
$STYLESHEET
  1

  9
$XEDIT
290
     1
  9
$CEPSNTYPE
380
     0
  9
$PSTYLEMODE
290
     1
  9
$FINGERPRINTGUID
  2
{E75C5718-7A2F-E545-A4FA-6A950EC4177B}
  9
$VERSIONGUID
  2
{87E0A020-452B-F149-ACE0-5FB14E3BA2D0}
  9
$EXTNAMES
290
     1
  9
$PSVPSCALE
 40
0.0
  9
$OLESTARTUP
290
     0
  9
$SORTENTS
280
   127
  9
$INDEXCTL
280
     0
  9
$HIDETEXT
280
     1
  9
$XCLIPFRAME
280
     2
  9
$HALOGAP
280
     0
  9
$OBSCOLOR
 70
   257
  9
$OBSLTYPE
280
     0
  9
$INTERSECTIONDISPLAY
280
     0
  9
$INTERSECTIONCOLOR
 70
   257
  9
$DIMASSOC
280
     2
  9
$PROJECTNAME
  1

  9
$CAMERADISPLAY
290
     0
  9
$LENSLENGTH
 40
50.0
  9
$CAMERAHEIGHT
 40
0.0
  9
$STEPSPERSEC
 40
2.0
  9
$STEPSIZE
 40
6.0
  9
$3DDWFPREC
 40
2.0
  9
$PSOLWIDTH
 40
0.25
  9
$PSOLHEIGHT
 40
4.0
  9
$LOFTANG1
 40
1.570796326794896
  9
$LOFTANG2
 40
1.570796326794896
  9
$LOFTMAG1
 40
0.0
  9
$LOFTMAG2
 40
0.0
  9
$LOFTPARAM
 70
     7
  9
$LOFTNORMALS
280
     1
  9
$LATITUDE
 40
37.795
  9
$LONGITUDE
 40
-122.394
  9
$NORTHDIRECTION
 40
0.0
  9
$TIMEZONE
 70
 -8000
  9
$LIGHTGLYPHDISPLAY
280
     1
  9
$TILEMODELIGHTSYNCH
280
     1
  9
$CMATERIAL
347
11
  9
$SOLIDHIST
280
     0
  9
$SHOWHIST
280
     1
  9
$DWFFRAME
280
     2
  9
$DGNFRAME
280
     0
  9
$REALWORLDSCALE
290
     1
  9
$INTERFERECOLOR
 62
     1
  9
$INTERFEREOBJVS
345
33
  9
$INTERFEREVPVS
346
30
  9
$CSHADOW
280
     0
  9
$SHADOWPLANELOCATION
 40
0.0
  0
ENDSEC
  0
SECTION
  2
CLASSES
  0
CLASS
  1
ACDBDICTIONARYWDFLT
  2
AcDbDictionaryWithDefault
  3
ObjectDBX Classes
 90
        0
 91
        1
280
     0
281
     0
  0
CLASS
  1
MATERIAL
  2
AcDbMaterial
  3
ObjectDBX Classes
 90
     1153
 91
        3
280
     0
281
     0
  0
CLASS
  1
VISUALSTYLE
  2
AcDbVisualStyle
  3
ObjectDBX Classes
 90
     4095
 91
       24
280
     0
281
     0
  0
CLASS
  1
SCALE
  2
AcDbScale
  3
ObjectDBX Classes
 90
     1153
 91
       17
280
     0
281
     0
  0
CLASS
  1
TABLESTYLE
  2
AcDbTableStyle
  3
ObjectDBX Classes
 90
     4095
 91
        1
280
     0
281
     0
  0
CLASS
  1
MLEADERSTYLE
  2
AcDbMLeaderStyle
  3
ACDB_MLEADERSTYLE_CLASS
 90
     4095
 91
        1
280
     0
281
     0
  0
CLASS
  1
ACDBSECTIONVIEWSTYLE
  2
AcDbSectionViewStyle
  3
ObjectDBX Classes
 90
     1025
 91
        1
280
     0
281
     0
  0
CLASS
  1
ACDBDETAILVIEWSTYLE
  2
AcDbDetailViewStyle
  3
ObjectDBX Classes
 90
     1025
 91
        1
280
     0
281
     0
  0
CLASS
  1
DICTIONARYVAR
  2
AcDbDictionaryVar
  3
ObjectDBX Classes
 90
        0
 91
        5
280
     0
281
     0
  0
CLASS
  1
CELLSTYLEMAP
  2
AcDbCellStyleMap
  3
ObjectDBX Classes
 90
     1152
 91
        1
280
     0
281
     0
  0
ENDSEC
  0
SECTION
  2
TABLES
  0
TABLE
  2
VPORT
  5
8
330
0
100
AcDbSymbolTable
 70
     1
  0
VPORT
  5
57
330
8
100
AcDbSymbolTableRecord
100
AcDbViewportTableRecord
  2
*Active
 70
     0
 10
0.0
 20
0.0
 11
1.0
 21
1.0
 12
0.0
 22
0.0
 13
0.0
 23
0.0
 14
1.0
 24
1.0
 15
0.0
 25
0.0
 16
0.0
 26
0.0
 36
1.0
 17
640.0
 27
-512.0
 37
0.0
 40
1044.48
 41
1.25
 42
50.0
 43
0.0
 44
0.0
 50
0.0
 51
0.0
 71
     0
 72
   100
 73
     1
 74
     1
 75
     0
 76
     0
 77
     0
 78
     0
281
     0
 65
     1
110
0.0
120
0.0
130
0.0
111
1.0
121
0.0
131
0.0
112
0.0
122
1.0
132
0.0
 79
     0
146
0.0
 60
     3
 61
     5
292
     1
282
     1
141
0.0
142
0.0
 63
   250
421
  3355443
  0
ENDTAB
  0
TABLE
  2
LTYPE
  5
5
330
0
100
AcDbSymbolTable
 70
     1
  0
LTYPE
  5
5B
330
5
100
AcDbSymbolTableRecord
100
AcDbLinetypeTableRecord
  2
ByBlock
 70
     0
  3

 72
    65
 73
     0
 40
0.0
  0
LTYPE
  5
5C
330
5
100
AcDbSymbolTableRecord
100
AcDbLinetypeTableRecord
  2
ByLayer
 70
     0
  3

 72
    65
 73
     0
 40
0.0
  0
LTYPE
  5
5D
330
5
100
AcDbSymbolTableRecord
100
AcDbLinetypeTableRecord
  2
Continuous
 70
     0
  3
Solid line
 72
    65
 73
     0
 40
0.0
  0
ENDTAB
  0
TABLE
  2
LAYER
  5
2
330
0
100
AcDbSymbolTable
 70
     2
  0
LAYER
  5
54
330
2
100
AcDbSymbolTableRecord
100
AcDbLayerTableRecord
  2
0
 70
     0
 62
     7
  6
Continuous
370
    -3
390
F
347
21
348
0
  0
LAYER
  5
78
330
2
100
AcDbSymbolTableRecord
100
AcDbLayerTableRecord
  2
Layer 1
 70
     0
 62
     7
  6
Continuous
370
     0
390
F
347
21
348
0
  0
ENDTAB
  0
TABLE
  2
STYLE
  5
3
330
0
100
AcDbSymbolTable
 70
     2
  0
STYLE
  5
55
330
3
100
AcDbSymbolTableRecord
100
AcDbTextStyleTableRecord
  2
Standard
 70
     0
 40
0.0
 41
1.0
 50
0.0
 71
     0
 42
0.2
  3
txt
  4

  0
STYLE
  5
5A
330
3
100
AcDbSymbolTableRecord
100
AcDbTextStyleTableRecord
  2
Annotative
 70
     0
 40
0.0
 41
1.0
 50
0.0
 71
     0
 42
0.2
  3
txt
  4

1001
AcadAnnotative
1000
AnnotativeData
1002
{
1070
     1
1070
     1
1002
}
  0
ENDTAB
  0
TABLE
  2
VIEW
  5
6
330
0
100
AcDbSymbolTable
 70
     0
  0
ENDTAB
  0
TABLE
  2
UCS
  5
7
330
0
100
AcDbSymbolTable
 70
     0
  0
ENDTAB
  0
TABLE
  2
APPID
  5
9
330
0
100
AcDbSymbolTable
 70
     2
  0
APPID
  5
56
330
9
100
AcDbSymbolTableRecord
100
AcDbRegAppTableRecord
  2
ACAD
 70
     0
  0
APPID
  5
5E
330
9
100
AcDbSymbolTableRecord
100
AcDbRegAppTableRecord
  2
AcadAnnotative
 70
     0
  0
ENDTAB
  0
TABLE
  2
DIMSTYLE
  5
A
330
0
100
AcDbSymbolTable
 70
     2
100
AcDbDimStyleTable
 71
     0
  0
DIMSTYLE
105
58
330
A
100
AcDbSymbolTableRecord
100
AcDbDimStyleTableRecord
  2
Standard
 70
     0
340
55
  0
DIMSTYLE
105
59
330
A
100
AcDbSymbolTableRecord
100
AcDbDimStyleTableRecord
  2
Annotative
 70
     0
340
55
1001
AcadAnnotative
1000
AnnotativeData
1002
{
1070
     1
1070
     1
1002
}
  0
ENDTAB
  0
TABLE
  2
BLOCK_RECORD
  5
1
330
0
100
AcDbSymbolTable
 70
     1
  0
BLOCK_RECORD
  5
70
330
1
100
AcDbSymbolTableRecord
100
AcDbBlockTableRecord
  2
*Model_Space
340
73
 70
     0
280
     1
281
     0
  0
BLOCK_RECORD
  5
6C
330
1
100
AcDbSymbolTableRecord
100
AcDbBlockTableRecord
  2
*Paper_Space
340
6F
 70
     0
280
     1
281
     0
  0
BLOCK_RECORD
  5
74
330
1
100
AcDbSymbolTableRecord
100
AcDbBlockTableRecord
  2
*Paper_Space0
340
77
 70
     0
280
     1
281
     0
  0
ENDTAB
  0
ENDSEC
  0
SECTION
  2
BLOCKS
  0
BLOCK
  5
71
330
70
100
AcDbEntity
  8
0
100
AcDbBlockBegin
  2
*Model_Space
 70
     0
 10
0.0
 20
0.0
 30
0.0
  3
*Model_Space
  1

  0
ENDBLK
  5
72
330
70
100
AcDbEntity
  8
0
100
AcDbBlockEnd
  0
BLOCK
  5
6D
330
6C
100
AcDbEntity
 67
     1
  8
0
100
AcDbBlockBegin
  2
*Paper_Space
 70
     0
 10
0.0
 20
0.0
 30
0.0
  3
*Paper_Space
  1

  0
ENDBLK
  5
6E
330
6C
100
AcDbEntity
 67
     1
  8
0
100
AcDbBlockEnd
  0
BLOCK
  5
75
330
74
100
AcDbEntity
 67
     1
  8
0
100
AcDbBlockBegin
  2
*Paper_Space0
 70
     0
 10
0.0
 20
0.0
 30
0.0
  3
*Paper_Space0
  1

  0
ENDBLK
  5
76
330
74
100
AcDbEntity
 67
     1
  8
0
100
AcDbBlockEnd
  0
ENDSEC
  0
SECTION
  2
ENTITIES
  0
SPLINE
  5
79
330
70
100
AcDbEntity
  8
Layer 1
 62
    18
420
        0
370
   140
100
AcDbSpline
210
0.0
220
0.0
230
1.0
 70
     9
 71
     3
 72
   251
 73
   247
 74
     0
 42
0.0000000001
 43
0.0000000001
 40
0.0
 40
0.0
 40
0.0
 40
0.0
 40
1.0
 40
1.0
 40
1.0
 40
2.0
 40
2.0
 40
2.0
 40
3.0
 40
3.0
 40
3.0
 40
4.0
 40
4.0
 40
4.0
 40
5.0
 40
5.0
 40
5.0
 40
6.0
 40
6.0
 40
6.0
 40
7.0
 40
7.0
 40
7.0
 40
8.0
 40
8.0
 40
8.0
 40
9.0
 40
9.0
 40
9.0
 40
10.0
 40
10.0
 40
10.0
 40
11.0
 40
11.0
 40
11.0
 40
12.0
 40
12.0
 40
12.0
 40
13.0
 40
13.0
 40
13.0
 40
14.0
 40
14.0
 40
14.0
 40
15.0
 40
15.0
 40
15.0
 40
16.0
 40
16.0
 40
16.0
 40
17.0
 40
17.0
 40
17.0
 40
18.0
 40
18.0
 40
18.0
 40
19.0
 40
19.0
 40
19.0
 40
20.0
 40
20.0
 40
20.0
 40
21.0
 40
21.0
 40
21.0
 40
22.0
 40
22.0
 40
22.0
 40
23.0
 40
23.0
 40
23.0
 40
24.0
 40
24.0
 40
24.0
 40
25.0
 40
25.0
 40
25.0
 40
26.0
 40
26.0
 40
26.0
 40
27.0
 40
27.0
 40
27.0
 40
28.0
 40
28.0
 40
28.0
 40
29.0
 40
29.0
 40
29.0
 40
30.0
 40
30.0
 40
30.0
 40
31.0
 40
31.0
 40
31.0
 40
32.0
 40
32.0
 40
32.0
 40
33.0
 40
33.0
 40
33.0
 40
34.0
 40
34.0
 40
34.0
 40
35.0
 40
35.0
 40
35.0
 40
36.0
 40
36.0
 40
36.0
 40
37.0
 40
37.0
 40
37.0
 40
38.0
 40
38.0
 40
38.0
 40
39.0
 40
39.0
 40
39.0
 40
40.0
 40
40.0
 40
40.0
 40
41.0
 40
41.0
 40
41.0
 40
42.0
 40
42.0
 40
42.0
 40
43.0
 40
43.0
 40
43.0
 40
44.0
 40
44.0
 40
44.0
 40
45.0
 40
45.0
 40
45.0
 40
46.0
 40
46.0
 40
46.0
 40
47.0
 40
47.0
 40
47.0
 40
48.0
 40
48.0
 40
48.0
 40
49.0
 40
49.0
 40
49.0
 40
50.0
 40
50.0
 40
50.0
 40
51.0
 40
51.0
 40
51.0
 40
52.0
 40
52.0
 40
52.0
 40
53.0
 40
53.0
 40
53.0
 40
54.0
 40
54.0
 40
54.0
 40
55.0
 40
55.0
 40
55.0
 40
56.0
 40
56.0
 40
56.0
 40
57.0
 40
57.0
 40
57.0
 40
58.0
 40
58.0
 40
58.0
 40
59.0
 40
59.0
 40
59.0
 40
60.0
 40
60.0
 40
60.0
 40
61.0
 40
61.0
 40
61.0
 40
62.0
 40
62.0
 40
62.0
 40
63.0
 40
63.0
 40
63.0
 40
64.0
 40
64.0
 40
64.0
 40
65.0
 40
65.0
 40
65.0
 40
66.0
 40
66.0
 40
66.0
 40
67.0
 40
67.0
 40
67.0
 40
68.0
 40
68.0
 40
68.0
 40
69.0
 40
69.0
 40
69.0
 40
70.0
 40
70.0
 40
70.0
 40
71.0
 40
71.0
 40
71.0
 40
72.0
 40
72.0
 40
72.0
 40
73.0
 40
73.0
 40
73.0
 40
74.0
 40
74.0
 40
74.0
 40
75.0
 40
75.0
 40
75.0
 40
76.0
 40
76.0
 40
76.0
 40
77.0
 40
77.0
 40
77.0
 40
78.0
 40
78.0
 40
78.0
 40
79.0
 40
79.0
 40
79.0
 40
80.0
 40
80.0
 40
80.0
 40
81.0
 40
81.0
 40
81.0
 40
82.0
 40
82.0
 40
82.0
 40
82.0
 10
616.234291359231
 20
-901.859976361622
 30
0.0
 10
616.3026812518092
 20
-900.6059785588877
 30
0.0
 10
616.4238970721217
 20
-899.3519807561533
 30
0.0
 10
616.4268725359889
 20
-898.097982953419
 30
0.0
 10
616.4340594256373
 20
-868.6019807561534
 30
0.0
 10
616.4292529070826
 20
-839.1059785588877
 30
0.0
 10
616.4268725359889
 20
-809.6099763616221
 30
0.0
 10
616.4268725359889
 20
-809.6099763616221
 30
0.0
 10
616.4268725359889
 20
-805.3799653752939
 30
0.0
 10
616.4268725359889
 20
-805.3799653752939
 30
0.0
 10
585.5940630877467
 20
-803.8319917424814
 30
0.0
 10
555.3906786883326
 20
-799.5539613469737
 30
0.0
 10
525.1662829363795
 20
-792.4499726995127
 30
0.0
 10
519.0192721331568
 20
-819.9899965032237
 30
0.0
 10
512.9706805193873
 20
-847.0919862493174
 30
0.0
 10
506.8410647356959
 20
-874.5539613469736
 30
0.0
 10
494.7648699725123
 20
-871.9019990667002
 30
0.0
 10
482.9010775530787
 20
-869.3039613469736
 30
0.0
 10
470.5812838519068
 20
-866.6039796575205
 30
0.0
 10
476.713280006692
 20
-838.4999910100596
 30
0.0
 10
482.7642748797388
 20
-810.743994305958
 30
0.0
 10
488.9016726458521
 20
-782.6159730657236
 30
0.0
 10
464.5206759417505
 20
-774.9179902776377
 30
0.0
 10
440.9934771502467
 20
-765.7739778264658
 30
0.0
 10
417.795685097024
 20
-754.6139741643564
 30
0.0
 10
403.4868853533716
 20
-778.2479921086924
 30
0.0
 10
389.3046801531764
 20
-801.6779847844736
 30
0.0
 10
374.9478838885279
 20
-825.4019990667002
 30
0.0
 10
364.2396700823756
 20
-818.891958783497
 30
0.0
 10
353.8350794756861
 20
-812.5679994329111
 30
0.0
 10
343.0740740740748
 20
-806.0279756292002
 30
0.0
 10
356.9724772417994
 20
-783.0059877141612
 30
0.0
 10
370.7490694964381
 20
-760.1879792913096
 30
0.0
 10
384.7158740008326
 20
-737.0519624456065
 30
0.0
 10
355.0590708697291
 20
-719.8133607610361
 30
0.0
 10
327.3966753924342
 20
-700.1327729924814
 30
0.0
 10
301.1004755938502
 20
-677.6243959172862
 30
0.0
 10
284.8278811419459
 20
-698.1563783391611
 30
0.0
 10
268.6818755114527
 20
-718.5335908635752
 30
0.0
 10
252.3126757586451
 20
-739.1939759954111
 30
0.0
 10
242.547077461526
 20
-731.400000165333
 30
0.0
 10
233.0401328051539
 20
-723.8099580510752
 30
0.0
 10
223.1124146426173
 20
-715.8881746038096
 30
0.0
 10
240.0564768755894
 20
-694.4820008977549
 30
0.0
 10
256.7646735156031
 20
-673.372183392872
 30
0.0
 10
273.6534808123561
 20
-652.0398011907237
 30
0.0
 10
270.1992762530299
 20
-648.190786908497
 30
0.0
 10
266.8470728838893
 20
-644.4683900579112
 30
0.0
 10
263.512876793191
 20
-640.7357850774424
 30
0.0
 10
248.6538737261744
 20
-624.0983644231455
 30
0.0
 10
233.9168532336207
 20
-607.3517671331065
 30
0.0
 10
220.3530152285548
 20
-589.6277986272471
 30
0.0
 10
204.3971560442896
 20
-568.7789979680673
 30
0.0
 10
190.0705950701685
 20
-546.8579774602549
 30
0.0
 10
177.4062396133404
 20
-523.8527894719736
 30
0.0
 10
175.113074934794
 20
-520.1105714543955
 30
0.0
 10
175.1130755389185
 20
-517.0217653020517
 30
0.0
 10
175.1130755389185
 20
-515.4455934270518
 30
0.0
 10
175.1130755389185
 20
-514.1231599553757
 30
0.0
 10
175.1130750858274
 20
-511.6019807561561
 30
0.0
 10
177.4366474593134
 20
-507.4079957708054
 30
0.0
 10
197.6722357714634
 20
-471.0467744573279
 30
0.0
 10
221.4932558978053
 20
-437.2121797307645
 30
0.0
 10
248.8872759783717
 20
-405.9035707219764
 30
0.0
 10
255.6018736803981
 20
-398.2259813054734
 30
0.0
 10
262.6284773791285
 20
-390.8267808660194
 30
0.0
 10
269.7762740099879
 20
-383.0123887761756
 30
0.0
 10
254.408478065774
 20
-363.5951753362342
 30
0.0
 10
238.9518759692164
 20
-344.0615754827186
 30
0.0
 10
223.2593539202662
 20
-324.2309785588895
 30
0.0
 10
232.6448538744898
 20
-315.9911866887733
 30
0.0
 10
242.4306738818141
 20
-308.7569757207557
 30
0.0
 10
252.3078749621364
 20
-300.7445779546424
 30
0.0
 10
267.189073845193
 20
-319.4447847112342
 30
0.0
 10
281.8830759966822
 20
-338.0993867620146
 30
0.0
 10
296.8506777728053
 20
-356.9309831365272
 30
0.0
 10
305.8944743121119
 20
-349.6817689641639
 30
0.0
 10
314.6436770403834
 20
-342.358786176078
 30
0.0
 10
323.7228701556178
 20
-335.4713884099647
 30
0.0
 10
332.7510798418971
 20
-328.6199708684608
 30
0.0
 10
341.982078834817
 20
-322.0115800603553
 30
0.0
 10
351.3624804461451
 20
-315.6491685613318
 30
0.0
 10
360.8364718401881
 20
-309.223173688285
 30
0.0
 10
370.6068652117701
 20
-303.230383466117
 30
0.0
 10
380.7096865618678
 20
-296.7485757573768
 30
0.0
 10
368.1492693865748
 20
-275.9381814702674
 30
0.0
 10
355.5582735980006
 20
-255.0815759404823
 30
0.0
 10
342.7572787249537
 20
-233.8727784856483
 30
0.0
 10
353.4246714556666
 20
-227.3837838872596
 30
0.0
 10
363.8160784686061
 20
-221.0615754827186
 30
0.0
 10
374.6382754290553
 20
-214.4759813054734
 30
0.0
 10
387.71827726011
 20
-235.9685807927772
 30
0.0
 10
400.651268287942
 20
-257.2253747686072
 30
0.0
 10
413.7288668597193
 20
-278.7149759038612
 30
0.0
 10
437.5674822771998
 20
-266.9531732305213
 30
0.0
 10
461.9130709612818
 20
-257.0909753545448
 30
0.0
 10
487.5408785784693
 20
-248.9927812322303
 30
0.0
 10
481.127472206399
 20
-219.6857782109901
 30
0.0
 10
474.7368853533717
 20
-190.4825788243934
 30
0.0
 10
468.2526858294458
 20
-160.854159901969
 30
0.0
 10
480.420685097024
 20
-158.178399632804
 30
0.0
 10
492.286880775735
 20
-155.5685172780677
 30
0.0
 10
504.6066744769068
 20
-152.8597579702063
 30
0.0
 10
510.9462664568873
 20
-181.7814985021277
 30
0.0
 10
517.2126849139186
 20
-210.3761811956092
 30
0.0
 10
523.6026766741733
 20
-239.5259767278357
 30
0.0
 10
554.166664406106
 20
-232.2689805730506
 30
0.0
 10
584.9304888689967
 20
-227.6219812139197
 30
0.0
 10
616.2570879900913
 20
-226.0637765630408
 30
0.0
 10
616.3254778826686
 20
-224.522978375785
 30
0.0
 10
616.419090553567
 20
-223.4057832463895
 30
0.0
 10
616.419090553567
 20
-222.2879815801307
 30
0.0
 10
616.4316790545435
 20
-190.1459794744178
 30
0.0
 10
616.4340594256373
 20
-158.0035596593543
 30
0.0
 10
616.4268725359889
 20
-125.8612707360907
 30
0.0
 10
616.4238970721217
 20
-124.8578484758063
 30
0.0
 10
616.3026812518092
 20
-123.8569585784598
 30
0.0
 10
616.234291359231
 20
-122.8560730210947
 30
0.0
 10
616.234291359231
 20
-122.8560730210947
 30
0.0
 10
654.049873634618
 20
-122.8560730210947
 30
0.0
 10
654.049873634618
 20
-122.8560730210947
 30
0.0
 10
653.9838641131336
 20
-123.6061045333072
 30
0.0
 10
653.8596728289539
 20
-124.3561344846412
 30
0.0
 10
653.8596728289539
 20
-125.1061586245223
 30
0.0
 10
653.8494646990711
 20
-157.4993186696692
 30
0.0
 10
653.8494646990711
 20
-189.8921781285926
 30
0.0
 10
653.8620532000477
 20
-222.2879815801307
 30
0.0
 10
653.8620532000477
 20
-223.2611757024451
 30
0.0
 10
654.0168688738758
 20
-224.2367730840369
 30
0.0
 10
654.1308978045399
 20
-225.5495820745145
 30
0.0
 10
685.5126574480946
 20
-226.5119729741737
 30
0.0
 10
716.3778765643055
 20
-230.5763765081092
 30
0.0
 10
747.1620715105946
 20
-237.3317781194373
 30
0.0
 10
753.3702624285633
 20
-209.0027757390662
 30
0.0
 10
759.4770586932118
 20
-181.1277375920935
 30
0.0
 10
765.6696856463367
 20
-152.8698974355384
 30
0.0
 10
777.8730700457509
 20
-155.5456577047025
 30
0.0
 10
789.7470934832508
 20
-158.1480384572669
 30
0.0
 10
802.125068947118
 20
-160.8618388875648
 30
0.0
 10
795.8010638201649
 20
-189.5453763707801
 30
0.0
 10
789.5610583270008
 20
-217.87917954766
 30
0.0
 10
783.2550890887196
 20
-246.4967790349647
 30
0.0
 10
809.3430865252431
 20
-254.1413751348182
 30
0.0
 10
834.2490923846181
 20
-263.9021783574735
 30
0.0
 10
858.7170641863759
 20
-275.4539819463416
 30
0.0
 10
871.0770953143056
 20
-255.0941758855506
 30
0.0
 10
883.2810748064931
 20
-234.9827752813026
 30
0.0
 10
895.7010729754383
 20
-214.514376233451
 30
0.0
 10
906.405098243993
 20
-221.0261789067908
 30
0.0
 10
916.8690722430165
 20
-227.3885789617234
 30
0.0
 10
927.5250781023915
 20
-233.8757768376991
 30
0.0
 10
915.5010912859852
 20
-253.796976636283
 30
0.0
 10
903.7530901873523
 20
-273.2621751531287
 30
0.0
 10
891.8490832293446
 20
-292.9757791265174
 30
0.0
 10
922.1130755389149
 20
-310.3025804265663
 30
0.0
 10
949.9890521014149
 20
-330.2873750432646
 30
0.0
 10
976.4850542986804
 20
-352.6181855901395
 30
0.0
 10
990.3031084978993
 20
-335.177389691703
 30
0.0
 10
1003.827095314309
 20
-318.1091676458054
 30
0.0
 10
1017.53711728696
 20
-300.8057809575721
 30
0.0
 10
1027.42508725767
 20
-308.5085817083054
 30
0.0
 10
1037.29511289243
 20
-315.8111711248084
 30
0.0
 10
1046.697120949069
 20
-324.3173814519569
 30
0.0
 10
1032.513038917819
 20
-342.3281846746131
 30
0.0
 10
1018.491096779149
 20
-360.1289888127967
 30
0.0
 10
1003.93503598813
 20
-378.6059785588895
 30
0.0
 10
1005.63306455259
 20
-380.0021806462928
 30
0.0
 10
1007.40305356626
 20
-381.2309785588896
 30
0.0
 10
1008.90305356626
 20
-382.7309785588895
 30
0.0
 10
1037.45706967954
 20
-411.280188153617
 30
0.0
 10
1062.16504697446
 20
-442.9235826238318
 30
0.0
 10
1083.897102638521
 20
-476.8799882634803
 30
0.0
 10
1091.64310483579
 20
-488.9945893987341
 30
0.0
 10
1100.20511655454
 20
-500.7365709050819
 30
0.0
 10
1104.81305722837
 20
-514.6271577581065
 30
0.0
 10
1104.951118751811
 20
-515.0705934270518
 30
0.0
 10
1105.035072609229
 20
-515.3795839055674
 30
0.0
 10
1105.035072609229
 20
-515.7599855168955
 30
0.0
 10
1105.035072609229
 20
-516.1349855168955
 30
0.0
 10
1104.93308286313
 20
-516.375586102833
 30
0.0
 10
1104.81305722837
 20
-516.8951936467784
 30
0.0
 10
1103.74509458188
 20
-520.4801698430673
 30
0.0
 10
1102.407051368989
 20
-523.9115663274424
 30
0.0
 10
1100.553108497899
 20
-527.220556805958
 30
0.0
 10
1088.889107033061
 20
-548.0261903508798
 30
0.0
 10
1075.767036720561
 20
-567.8867707952158
 30
0.0
 10
1061.83509091977
 20
-587.2049928411143
 30
0.0
 10
1044.5430682147
 20
-611.1707978948252
 30
0.0
 10
1025.13306455259
 20
-633.3419862493173
 30
0.0
 10
1004.04911069517
 20
-654.043798993458
 30
0.0
 10
1002.993049904149
 20
-655.0751863225595
 30
0.0
 10
1001.97910337095
 20
-656.1521669133798
 30
0.0
 10
1000.85703305845
 20
-657.3023896917002
 30
0.0
 10
1016.355079933449
 20
-676.9169679387705
 30
0.0
 10
1031.64310483579
 20
-696.2555604680674
 30
0.0
 10
1047.159096046729
 20
-715.8935762151377
 30
0.0
 10
1037.24704770688
 20
-723.8099580510752
 30
0.0
 10
1027.74909238462
 20
-731.4059968694346
 30
0.0
 10
1017.993049904149
 20
-739.1999726995127
 30
0.0
 10
1002.83109311704
 20
-720.1529756292002
 30
0.0
 10
988.0170367205556
 20
-701.3057924016611
 30
0.0
 10
973.3470843279773
 20
-682.9019990667002
 30
0.0
 10
959.2530901873525
 20
-693.3875795110362
 30
0.0
 10
945.8670733416493
 20
-703.9007631047861
 30
0.0
 10
931.8990557635244
 20
-713.5721650823252
 30
0.0
 10
917.8410876238759
 20
-723.2999635442393
 30
0.0
 10
903.2010729754384
 20
-732.1919770940439
 30
0.0
 10
888.6090777361806
 20
-741.587988446583
 30
0.0
 10
901.4490740740711
 20
-762.8459840520518
 30
0.0
 10
914.4390795672352
 20
-784.3559785588877
 30
0.0
 10
927.5370715105946
 20
-806.0519624456064
 30
0.0
 10
916.6710894549305
 20
-812.6519990667002
 30
0.0
 10
906.2850726092275
 20
-818.963965009083
 30
0.0
 10
895.6530535662587
 20
-825.4259858831064
 30
0.0
 10
881.8770678484852
 20
-802.7519899114267
 30
0.0
 10
868.3470843279774
 20
-780.4919954045908
 30
0.0
 10
854.6790850603994
 20
-757.9919954045908
 30
0.0
 10
830.9430773699697
 20
-768.9539705022471
 30
0.0
 10
806.6910784686024
 20
-777.9239869817392
 30
0.0
 10
781.5090868914539
 20
-785.3519807561533
 30
0.0
 10
787.509086891454
 20
-812.6819825872081
 30
0.0
 10
793.4310839617665
 20
-839.6579957708018
 30
0.0
 10
799.4310839617664
 20
-866.9879976018565
 30
0.0
 10
787.0950854266102
 20
-869.6819825872081
 30
0.0
 10
775.2270586932118
 20
-872.2679811223642
 30
0.0
 10
763.0242693865711
 20
-874.9319825872079
 30
0.0
 10
757.1130755389149
 20
-847.9799562200206
 30
0.0
 10
751.3002551043446
 20
-821.4719606145518
 30
0.0
 10
745.5276720965321
 20
-795.150000165333
 30
0.0
 10
730.0788805926258
 20
-797.6159730657236
 30
0.0
 10
715.1088641131337
 20
-800.441977094044
 30
0.0
 10
700.0194628680165
 20
-802.3019624456065
 30
0.0
 10
684.8136980975087
 20
-804.1739869817392
 30
0.0
 10
669.4908831561024
 20
-805.0919862493174
 30
0.0
 10
653.8572924578602
 20
-806.453970502247
 30
0.0
 10
653.8572924578602
 20
-806.453970502247
 30
0.0
 10
653.8572924578602
 20
-809.9939943059579
 30
0.0
 10
653.8572924578602
 20
-809.9939943059579
 30
0.0
 10
653.8548663103993
 20
-839.4899965032236
 30
0.0
 10
653.8494646990711
 20
-868.9799562200205
 30
0.0
 10
653.8572924578602
 20
-898.4760041936533
 30
0.0
 10
653.8572924578602
 20
-899.6039338811533
 30
0.0
 10
653.9838641131336
 20
-900.7319551213877
 30
0.0
 10
654.049873634618
 20
-901.859976361622
 30
0.0
 10
654.049873634618
 20
-901.859976361622
 30
0.0
 10
616.234291359231
 20
-901.859976361622
 30
0.0
 10
616.234291359231
 20
-901.859976361622
 30
0.0
  0
SPLINE
  5
7A
330
70
100
AcDbEntity
  8
Layer 1
 62
    18
420
        0
370
   140
100
AcDbSpline
210
0.0
220
0.0
230
1.0
 70
     9
 71
     3
 72
    56
 73
    52
 74
     0
 42
0.0000000001
 43
0.0000000001
 40
0.0
 40
0.0
 40
0.0
 40
0.0
 40
1.0
 40
1.0
 40
1.0
 40
2.0
 40
2.0
 40
2.0
 40
3.0
 40
3.0
 40
3.0
 40
4.0
 40
4.0
 40
4.0
 40
5.0
 40
5.0
 40
5.0
 40
6.0
 40
6.0
 40
6.0
 40
7.0
 40
7.0
 40
7.0
 40
8.0
 40
8.0
 40
8.0
 40
9.0
 40
9.0
 40
9.0
 40
10.0
 40
10.0
 40
10.0
 40
11.0
 40
11.0
 40
11.0
 40
12.0
 40
12.0
 40
12.0
 40
13.0
 40
13.0
 40
13.0
 40
14.0
 40
14.0
 40
14.0
 40
15.0
 40
15.0
 40
15.0
 40
16.0
 40
16.0
 40
16.0
 40
17.0
 40
17.0
 40
17.0
 40
17.0
 10
215.368875786111
 20
-515.3897920354502
 30
0.0
 10
216.3139946902247
 20
-517.082373212208
 30
0.0
 10
216.9677556002589
 20
-518.3015809758798
 30
0.0
 10
217.6620142901393
 20
-519.494970868458
 30
0.0
 10
252.6270735705348
 20
-579.3551698430674
 30
0.0
 10
297.5604746783229
 20
-630.5063691838877
 30
0.0
 10
353.1510775530787
 20
-671.8721833928721
 30
0.0
 10
430.6830828631373
 20
-729.5639558538096
 30
0.0
 10
517.4178774798365
 20
-762.9059968694345
 30
0.0
 10
614.4072649920436
 20
-768.1679902776377
 30
0.0
 10
643.8204577410687
 20
-769.7639833196299
 30
0.0
 10
673.1070788348134
 20
-768.6299653752939
 30
0.0
 10
702.2946856463367
 20
-764.8139558538096
 30
0.0
 10
734.6196673357899
 20
-760.5899873479502
 30
0.0
 10
766.1028674090321
 20
-752.8739686711924
 30
0.0
 10
796.7790759051259
 20
-741.8160005315439
 30
0.0
 10
864.7650835955555
 20
-717.3095765813486
 30
0.0
 10
924.6030810320789
 20
-679.8161683782236
 30
0.0
 10
976.3050616228992
 20
-629.3411775334971
 30
0.0
 10
1003.82105283384
 20
-602.4743867620127
 30
0.0
 10
1028.217109962739
 20
-573.028189252247
 30
0.0
 10
1049.031074806489
 20
-540.6629701360361
 30
0.0
 10
1054.26908139829
 20
-532.513769696583
 30
0.0
 10
1059.23709897642
 20
-524.1899781926767
 30
0.0
 10
1064.337044044771
 20
-515.9399781926768
 30
0.0
 10
1063.50904111509
 20
-514.4471650823252
 30
0.0
 10
1062.867073341649
 20
-513.2309785588914
 30
0.0
 10
1062.17704038267
 20
-512.042395184867
 30
0.0
 10
1042.52707700376
 20
-478.2305742009802
 30
0.0
 10
1019.30106382017
 20
-447.0917726262732
 30
0.0
 10
992.5110857928212
 20
-418.6007676824256
 30
0.0
 10
963.4530718768056
 20
-387.6947847112342
 30
0.0
 10
931.3410876238759
 20
-360.4529710515663
 30
0.0
 10
895.4070971453601
 20
-337.8359895452186
 30
0.0
 10
828.9390795672352
 20
-295.9913774236375
 30
0.0
 10
756.9378893816884
 20
-270.3179765447303
 30
0.0
 10
678.3498919451649
 20
-264.05398423516
 30
0.0
 10
656.8344958270008
 20
-262.3361802800819
 30
0.0
 10
635.3088915789576
 20
-262.0547815068894
 30
0.0
 10
613.7610857928248
 20
-263.2103830083533
 30
0.0
 10
589.0578692400914
 20
-264.5357804998084
 30
0.0
 10
564.6060564959498
 20
-267.7637811406785
 30
0.0
 10
540.4326785052271
 20
-273.0089746221229
 30
0.0
 10
501.8472750628443
 20
-281.380774091117
 30
0.0
 10
464.9610674822779
 20
-294.6509767278358
 30
0.0
 10
429.6642840350123
 20
-312.2711816533729
 30
0.0
 10
348.29347257261
 20
-352.8917680486375
 30
0.0
 10
283.2588732684108
 20
-411.9413820012733
 30
0.0
 10
232.8779528582554
 20
-487.3955751165076
 30
0.0
 10
226.7991774523707
 20
-496.4999681218787
 30
0.0
 10
221.2474368060084
 20
-505.9589677556678
 30
0.0
 10
215.368875786111
 20
-515.3897920354502
 30
0.0
  0
HATCH
  5
7B
330
70
100
AcDbEntity
  8
Layer 1
 62
   250
420
  2301728
440
 33554687
100
AcDbHatch
 10
0.0
 20
0.0
 30
0.0
210
0.0
220
0.0
230
1.0
  2
SOLID
 70
     1
 71
     1
 91
        2
 92
        1
 93
        1
 72
     4
 94
        3
 73
     0
 74
     0
 95
      251
 96
      247
 40
0.0
 40
0.0
 40
0.0
 40
0.0
 40
1.0
 40
1.0
 40
1.0
 40
2.0
 40
2.0
 40
2.0
 40
3.0
 40
3.0
 40
3.0
 40
4.0
 40
4.0
 40
4.0
 40
5.0
 40
5.0
 40
5.0
 40
6.0
 40
6.0
 40
6.0
 40
7.0
 40
7.0
 40
7.0
 40
8.0
 40
8.0
 40
8.0
 40
9.0
 40
9.0
 40
9.0
 40
10.0
 40
10.0
 40
10.0
 40
11.0
 40
11.0
 40
11.0
 40
12.0
 40
12.0
 40
12.0
 40
13.0
 40
13.0
 40
13.0
 40
14.0
 40
14.0
 40
14.0
 40
15.0
 40
15.0
 40
15.0
 40
16.0
 40
16.0
 40
16.0
 40
17.0
 40
17.0
 40
17.0
 40
18.0
 40
18.0
 40
18.0
 40
19.0
 40
19.0
 40
19.0
 40
20.0
 40
20.0
 40
20.0
 40
21.0
 40
21.0
 40
21.0
 40
22.0
 40
22.0
 40
22.0
 40
23.0
 40
23.0
 40
23.0
 40
24.0
 40
24.0
 40
24.0
 40
25.0
 40
25.0
 40
25.0
 40
26.0
 40
26.0
 40
26.0
 40
27.0
 40
27.0
 40
27.0
 40
28.0
 40
28.0
 40
28.0
 40
29.0
 40
29.0
 40
29.0
 40
30.0
 40
30.0
 40
30.0
 40
31.0
 40
31.0
 40
31.0
 40
32.0
 40
32.0
 40
32.0
 40
33.0
 40
33.0
 40
33.0
 40
34.0
 40
34.0
 40
34.0
 40
35.0
 40
35.0
 40
35.0
 40
36.0
 40
36.0
 40
36.0
 40
37.0
 40
37.0
 40
37.0
 40
38.0
 40
38.0
 40
38.0
 40
39.0
 40
39.0
 40
39.0
 40
40.0
 40
40.0
 40
40.0
 40
41.0
 40
41.0
 40
41.0
 40
42.0
 40
42.0
 40
42.0
 40
43.0
 40
43.0
 40
43.0
 40
44.0
 40
44.0
 40
44.0
 40
45.0
 40
45.0
 40
45.0
 40
46.0
 40
46.0
 40
46.0
 40
47.0
 40
47.0
 40
47.0
 40
48.0
 40
48.0
 40
48.0
 40
49.0
 40
49.0
 40
49.0
 40
50.0
 40
50.0
 40
50.0
 40
51.0
 40
51.0
 40
51.0
 40
52.0
 40
52.0
 40
52.0
 40
53.0
 40
53.0
 40
53.0
 40
54.0
 40
54.0
 40
54.0
 40
55.0
 40
55.0
 40
55.0
 40
56.0
 40
56.0
 40
56.0
 40
57.0
 40
57.0
 40
57.0
 40
58.0
 40
58.0
 40
58.0
 40
59.0
 40
59.0
 40
59.0
 40
60.0
 40
60.0
 40
60.0
 40
61.0
 40
61.0
 40
61.0
 40
62.0
 40
62.0
 40
62.0
 40
63.0
 40
63.0
 40
63.0
 40
64.0
 40
64.0
 40
64.0
 40
65.0
 40
65.0
 40
65.0
 40
66.0
 40
66.0
 40
66.0
 40
67.0
 40
67.0
 40
67.0
 40
68.0
 40
68.0
 40
68.0
 40
69.0
 40
69.0
 40
69.0
 40
70.0
 40
70.0
 40
70.0
 40
71.0
 40
71.0
 40
71.0
 40
72.0
 40
72.0
 40
72.0
 40
73.0
 40
73.0
 40
73.0
 40
74.0
 40
74.0
 40
74.0
 40
75.0
 40
75.0
 40
75.0
 40
76.0
 40
76.0
 40
76.0
 40
77.0
 40
77.0
 40
77.0
 40
78.0
 40
78.0
 40
78.0
 40
79.0
 40
79.0
 40
79.0
 40
80.0
 40
80.0
 40
80.0
 40
81.0
 40
81.0
 40
81.0
 40
82.0
 40
82.0
 40
82.0
 40
82.0
 10
616.234291359231
 20
-901.859976361622
 10
616.3026812518092
 20
-900.6059785588877
 10
616.4238970721217
 20
-899.3519807561533
 10
616.4268725359889
 20
-898.097982953419
 10
616.4340594256373
 20
-868.6019807561534
 10
616.4292529070826
 20
-839.1059785588877
 10
616.4268725359889
 20
-809.6099763616221
 10
616.4268725359889
 20
-809.6099763616221
 10
616.4268725359889
 20
-805.3799653752939
 10
616.4268725359889
 20
-805.3799653752939
 10
585.5940630877467
 20
-803.8319917424814
 10
555.3906786883326
 20
-799.5539613469737
 10
525.1662829363795
 20
-792.4499726995127
 10
519.0192721331568
 20
-819.9899965032237
 10
512.9706805193873
 20
-847.0919862493174
 10
506.8410647356959
 20
-874.5539613469736
 10
494.7648699725123
 20
-871.9019990667002
 10
482.9010775530787
 20
-869.3039613469736
 10
470.5812838519068
 20
-866.6039796575205
 10
476.713280006692
 20
-838.4999910100596
 10
482.7642748797388
 20
-810.743994305958
 10
488.9016726458521
 20
-782.6159730657236
 10
464.5206759417505
 20
-774.9179902776377
 10
440.9934771502467
 20
-765.7739778264658
 10
417.795685097024
 20
-754.6139741643564
 10
403.4868853533716
 20
-778.2479921086924
 10
389.3046801531764
 20
-801.6779847844736
 10
374.9478838885279
 20
-825.4019990667002
 10
364.2396700823756
 20
-818.891958783497
 10
353.8350794756861
 20
-812.5679994329111
 10
343.0740740740748
 20
-806.0279756292002
 10
356.9724772417994
 20
-783.0059877141612
 10
370.7490694964381
 20
-760.1879792913096
 10
384.7158740008326
 20
-737.0519624456065
 10
355.0590708697291
 20
-719.8133607610361
 10
327.3966753924342
 20
-700.1327729924814
 10
301.1004755938502
 20
-677.6243959172862
 10
284.8278811419459
 20
-698.1563783391611
 10
268.6818755114527
 20
-718.5335908635752
 10
252.3126757586451
 20
-739.1939759954111
 10
242.547077461526
 20
-731.400000165333
 10
233.0401328051539
 20
-723.8099580510752
 10
223.1124146426173
 20
-715.8881746038096
 10
240.0564768755894
 20
-694.4820008977549
 10
256.7646735156031
 20
-673.372183392872
 10
273.6534808123561
 20
-652.0398011907237
 10
270.1992762530299
 20
-648.190786908497
 10
266.8470728838893
 20
-644.4683900579112
 10
263.512876793191
 20
-640.7357850774424
 10
248.6538737261744
 20
-624.0983644231455
 10
233.9168532336207
 20
-607.3517671331065
 10
220.3530152285548
 20
-589.6277986272471
 10
204.3971560442896
 20
-568.7789979680673
 10
190.0705950701685
 20
-546.8579774602549
 10
177.4062396133404
 20
-523.8527894719736
 10
175.113074934794
 20
-520.1105714543955
 10
175.1130755389185
 20
-517.0217653020517
 10
175.1130755389185
 20
-515.4455934270518
 10
175.1130755389185
 20
-514.1231599553757
 10
175.1130750858274
 20
-511.6019807561561
 10
177.4366474593134
 20
-507.4079957708054
 10
197.6722357714634
 20
-471.0467744573279
 10
221.4932558978053
 20
-437.2121797307645
 10
248.8872759783717
 20
-405.9035707219764
 10
255.6018736803981
 20
-398.2259813054734
 10
262.6284773791285
 20
-390.8267808660194
 10
269.7762740099879
 20
-383.0123887761756
 10
254.408478065774
 20
-363.5951753362342
 10
238.9518759692164
 20
-344.0615754827186
 10
223.2593539202662
 20
-324.2309785588895
 10
232.6448538744898
 20
-315.9911866887733
 10
242.4306738818141
 20
-308.7569757207557
 10
252.3078749621364
 20
-300.7445779546424
 10
267.189073845193
 20
-319.4447847112342
 10
281.8830759966822
 20
-338.0993867620146
 10
296.8506777728053
 20
-356.9309831365272
 10
305.8944743121119
 20
-349.6817689641639
 10
314.6436770403834
 20
-342.358786176078
 10
323.7228701556178
 20
-335.4713884099647
 10
332.7510798418971
 20
-328.6199708684608
 10
341.982078834817
 20
-322.0115800603553
 10
351.3624804461451
 20
-315.6491685613318
 10
360.8364718401881
 20
-309.223173688285
 10
370.6068652117701
 20
-303.230383466117
 10
380.7096865618678
 20
-296.7485757573768
 10
368.1492693865748
 20
-275.9381814702674
 10
355.5582735980006
 20
-255.0815759404823
 10
342.7572787249537
 20
-233.8727784856483
 10
353.4246714556666
 20
-227.3837838872596
 10
363.8160784686061
 20
-221.0615754827186
 10
374.6382754290553
 20
-214.4759813054734
 10
387.71827726011
 20
-235.9685807927772
 10
400.651268287942
 20
-257.2253747686072
 10
413.7288668597193
 20
-278.7149759038612
 10
437.5674822771998
 20
-266.9531732305213
 10
461.9130709612818
 20
-257.0909753545448
 10
487.5408785784693
 20
-248.9927812322303
 10
481.127472206399
 20
-219.6857782109901
 10
474.7368853533717
 20
-190.4825788243934
 10
468.2526858294458
 20
-160.854159901969
 10
480.420685097024
 20
-158.178399632804
 10
492.286880775735
 20
-155.5685172780677
 10
504.6066744769068
 20
-152.8597579702063
 10
510.9462664568873
 20
-181.7814985021277
 10
517.2126849139186
 20
-210.3761811956092
 10
523.6026766741733
 20
-239.5259767278357
 10
554.166664406106
 20
-232.2689805730506
 10
584.9304888689967
 20
-227.6219812139197
 10
616.2570879900913
 20
-226.0637765630408
 10
616.3254778826686
 20
-224.522978375785
 10
616.419090553567
 20
-223.4057832463895
 10
616.419090553567
 20
-222.2879815801307
 10
616.4316790545435
 20
-190.1459794744178
 10
616.4340594256373
 20
-158.0035596593543
 10
616.4268725359889
 20
-125.8612707360907
 10
616.4238970721217
 20
-124.8578484758063
 10
616.3026812518092
 20
-123.8569585784598
 10
616.234291359231
 20
-122.8560730210947
 10
616.234291359231
 20
-122.8560730210947
 10
654.049873634618
 20
-122.8560730210947
 10
654.049873634618
 20
-122.8560730210947
 10
653.9838641131336
 20
-123.6061045333072
 10
653.8596728289539
 20
-124.3561344846412
 10
653.8596728289539
 20
-125.1061586245223
 10
653.8494646990711
 20
-157.4993186696692
 10
653.8494646990711
 20
-189.8921781285926
 10
653.8620532000477
 20
-222.2879815801307
 10
653.8620532000477
 20
-223.2611757024451
 10
654.0168688738758
 20
-224.2367730840369
 10
654.1308978045399
 20
-225.5495820745145
 10
685.5126574480946
 20
-226.5119729741737
 10
716.3778765643055
 20
-230.5763765081092
 10
747.1620715105946
 20
-237.3317781194373
 10
753.3702624285633
 20
-209.0027757390662
 10
759.4770586932118
 20
-181.1277375920935
 10
765.6696856463367
 20
-152.8698974355384
 10
777.8730700457509
 20
-155.5456577047025
 10
789.7470934832508
 20
-158.1480384572669
 10
802.125068947118
 20
-160.8618388875648
 10
795.8010638201649
 20
-189.5453763707801
 10
789.5610583270008
 20
-217.87917954766
 10
783.2550890887196
 20
-246.4967790349647
 10
809.3430865252431
 20
-254.1413751348182
 10
834.2490923846181
 20
-263.9021783574735
 10
858.7170641863759
 20
-275.4539819463416
 10
871.0770953143056
 20
-255.0941758855506
 10
883.2810748064931
 20
-234.9827752813026
 10
895.7010729754383
 20
-214.514376233451
 10
906.405098243993
 20
-221.0261789067908
 10
916.8690722430165
 20
-227.3885789617234
 10
927.5250781023915
 20
-233.8757768376991
 10
915.5010912859852
 20
-253.796976636283
 10
903.7530901873523
 20
-273.2621751531287
 10
891.8490832293446
 20
-292.9757791265174
 10
922.1130755389149
 20
-310.3025804265663
 10
949.9890521014149
 20
-330.2873750432646
 10
976.4850542986804
 20
-352.6181855901395
 10
990.3031084978993
 20
-335.177389691703
 10
1003.827095314309
 20
-318.1091676458054
 10
1017.53711728696
 20
-300.8057809575721
 10
1027.42508725767
 20
-308.5085817083054
 10
1037.29511289243
 20
-315.8111711248084
 10
1046.697120949069
 20
-324.3173814519569
 10
1032.513038917819
 20
-342.3281846746131
 10
1018.491096779149
 20
-360.1289888127967
 10
1003.93503598813
 20
-378.6059785588895
 10
1005.63306455259
 20
-380.0021806462928
 10
1007.40305356626
 20
-381.2309785588896
 10
1008.90305356626
 20
-382.7309785588895
 10
1037.45706967954
 20
-411.280188153617
 10
1062.16504697446
 20
-442.9235826238318
 10
1083.897102638521
 20
-476.8799882634803
 10
1091.64310483579
 20
-488.9945893987341
 10
1100.20511655454
 20
-500.7365709050819
 10
1104.81305722837
 20
-514.6271577581065
 10
1104.951118751811
 20
-515.0705934270518
 10
1105.035072609229
 20
-515.3795839055674
 10
1105.035072609229
 20
-515.7599855168955
 10
1105.035072609229
 20
-516.1349855168955
 10
1104.93308286313
 20
-516.375586102833
 10
1104.81305722837
 20
-516.8951936467784
 10
1103.74509458188
 20
-520.4801698430673
 10
1102.407051368989
 20
-523.9115663274424
 10
1100.553108497899
 20
-527.220556805958
 10
1088.889107033061
 20
-548.0261903508798
 10
1075.767036720561
 20
-567.8867707952158
 10
1061.83509091977
 20
-587.2049928411143
 10
1044.5430682147
 20
-611.1707978948252
 10
1025.13306455259
 20
-633.3419862493173
 10
1004.04911069517
 20
-654.043798993458
 10
1002.993049904149
 20
-655.0751863225595
 10
1001.97910337095
 20
-656.1521669133798
 10
1000.85703305845
 20
-657.3023896917002
 10
1016.355079933449
 20
-676.9169679387705
 10
1031.64310483579
 20
-696.2555604680674
 10
1047.159096046729
 20
-715.8935762151377
 10
1037.24704770688
 20
-723.8099580510752
 10
1027.74909238462
 20
-731.4059968694346
 10
1017.993049904149
 20
-739.1999726995127
 10
1002.83109311704
 20
-720.1529756292002
 10
988.0170367205556
 20
-701.3057924016611
 10
973.3470843279773
 20
-682.9019990667002
 10
959.2530901873525
 20
-693.3875795110362
 10
945.8670733416493
 20
-703.9007631047861
 10
931.8990557635244
 20
-713.5721650823252
 10
917.8410876238759
 20
-723.2999635442393
 10
903.2010729754384
 20
-732.1919770940439
 10
888.6090777361806
 20
-741.587988446583
 10
901.4490740740711
 20
-762.8459840520518
 10
914.4390795672352
 20
-784.3559785588877
 10
927.5370715105946
 20
-806.0519624456064
 10
916.6710894549305
 20
-812.6519990667002
 10
906.2850726092275
 20
-818.963965009083
 10
895.6530535662587
 20
-825.4259858831064
 10
881.8770678484852
 20
-802.7519899114267
 10
868.3470843279774
 20
-780.4919954045908
 10
854.6790850603994
 20
-757.9919954045908
 10
830.9430773699697
 20
-768.9539705022471
 10
806.6910784686024
 20
-777.9239869817392
 10
781.5090868914539
 20
-785.3519807561533
 10
787.509086891454
 20
-812.6819825872081
 10
793.4310839617665
 20
-839.6579957708018
 10
799.4310839617664
 20
-866.9879976018565
 10
787.0950854266102
 20
-869.6819825872081
 10
775.2270586932118
 20
-872.2679811223642
 10
763.0242693865711
 20
-874.9319825872079
 10
757.1130755389149
 20
-847.9799562200206
 10
751.3002551043446
 20
-821.4719606145518
 10
745.5276720965321
 20
-795.150000165333
 10
730.0788805926258
 20
-797.6159730657236
 10
715.1088641131337
 20
-800.441977094044
 10
700.0194628680165
 20
-802.3019624456065
 10
684.8136980975087
 20
-804.1739869817392
 10
669.4908831561024
 20
-805.0919862493174
 10
653.8572924578602
 20
-806.453970502247
 10
653.8572924578602
 20
-806.453970502247
 10
653.8572924578602
 20
-809.9939943059579
 10
653.8572924578602
 20
-809.9939943059579
 10
653.8548663103993
 20
-839.4899965032236
 10
653.8494646990711
 20
-868.9799562200205
 10
653.8572924578602
 20
-898.4760041936533
 10
653.8572924578602
 20
-899.6039338811533
 10
653.9838641131336
 20
-900.7319551213877
 10
654.049873634618
 20
-901.859976361622
 10
654.049873634618
 20
-901.859976361622
 10
616.234291359231
 20
-901.859976361622
 10
616.234291359231
 20
-901.859976361622
 97
        0
 97
        1
330
79
 92
        1
 93
        1
 72
     4
 94
        3
 73
     0
 74
     0
 95
       56
 96
       52
 40
0.0
 40
0.0
 40
0.0
 40
0.0
 40
1.0
 40
1.0
 40
1.0
 40
2.0
 40
2.0
 40
2.0
 40
3.0
 40
3.0
 40
3.0
 40
4.0
 40
4.0
 40
4.0
 40
5.0
 40
5.0
 40
5.0
 40
6.0
 40
6.0
 40
6.0
 40
7.0
 40
7.0
 40
7.0
 40
8.0
 40
8.0
 40
8.0
 40
9.0
 40
9.0
 40
9.0
 40
10.0
 40
10.0
 40
10.0
 40
11.0
 40
11.0
 40
11.0
 40
12.0
 40
12.0
 40
12.0
 40
13.0
 40
13.0
 40
13.0
 40
14.0
 40
14.0
 40
14.0
 40
15.0
 40
15.0
 40
15.0
 40
16.0
 40
16.0
 40
16.0
 40
17.0
 40
17.0
 40
17.0
 40
17.0
 10
215.368875786111
 20
-515.3897920354502
 10
216.3139946902247
 20
-517.082373212208
 10
216.9677556002589
 20
-518.3015809758798
 10
217.6620142901393
 20
-519.494970868458
 10
252.6270735705348
 20
-579.3551698430674
 10
297.5604746783229
 20
-630.5063691838877
 10
353.1510775530787
 20
-671.8721833928721
 10
430.6830828631373
 20
-729.5639558538096
 10
517.4178774798365
 20
-762.9059968694345
 10
614.4072649920436
 20
-768.1679902776377
 10
643.8204577410687
 20
-769.7639833196299
 10
673.1070788348134
 20
-768.6299653752939
 10
702.2946856463367
 20
-764.8139558538096
 10
734.6196673357899
 20
-760.5899873479502
 10
766.1028674090321
 20
-752.8739686711924
 10
796.7790759051259
 20
-741.8160005315439
 10
864.7650835955555
 20
-717.3095765813486
 10
924.6030810320789
 20
-679.8161683782236
 10
976.3050616228992
 20
-629.3411775334971
 10
1003.82105283384
 20
-602.4743867620127
 10
1028.217109962739
 20
-573.028189252247
 10
1049.031074806489
 20
-540.6629701360361
 10
1054.26908139829
 20
-532.513769696583
 10
1059.23709897642
 20
-524.1899781926767
 10
1064.337044044771
 20
-515.9399781926768
 10
1063.50904111509
 20
-514.4471650823252
 10
1062.867073341649
 20
-513.2309785588914
 10
1062.17704038267
 20
-512.042395184867
 10
1042.52707700376
 20
-478.2305742009802
 10
1019.30106382017
 20
-447.0917726262732
 10
992.5110857928212
 20
-418.6007676824256
 10
963.4530718768056
 20
-387.6947847112342
 10
931.3410876238759
 20
-360.4529710515663
 10
895.4070971453601
 20
-337.8359895452186
 10
828.9390795672352
 20
-295.9913774236375
 10
756.9378893816884
 20
-270.3179765447303
 10
678.3498919451649
 20
-264.05398423516
 10
656.8344958270008
 20
-262.3361802800819
 10
635.3088915789576
 20
-262.0547815068894
 10
613.7610857928248
 20
-263.2103830083533
 10
589.0578692400914
 20
-264.5357804998084
 10
564.6060564959498
 20
-267.7637811406785
 10
540.4326785052271
 20
-273.0089746221229
 10
501.8472750628443
 20
-281.380774091117
 10
464.9610674822779
 20
-294.6509767278358
 10
429.6642840350123
 20
-312.2711816533729
 10
348.29347257261
 20
-352.8917680486375
 10
283.2588732684108
 20
-411.9413820012733
 10
232.8779528582554
 20
-487.3955751165076
 10
226.7991774523707
 20
-496.4999681218787
 10
221.2474368060084
 20
-505.9589677556678
 10
215.368875786111
 20
-515.3897920354502
 97
        0
 97
        1
330
7A
 75
     2
 76
     1
 98
        1
 10
0.0
 20
0.0
450
        0
451
        0
460
0.0
461
0.0
452
        0
462
0.0
453
        0
470

  0
SPLINE
  5
7C
330
70
100
AcDbEntity
  8
Layer 1
100
AcDbSpline
210
0.0
220
0.0
230
1.0
 70
    11
 71
     3
 72
    26
 73
    22
 74
     0
 42
0.0000000001
 43
0.0000000001
 40
0.0
 40
0.0
 40
0.0
 40
0.0
 40
1.0
 40
1.0
 40
1.0
 40
2.0
 40
2.0
 40
2.0
 40
3.0
 40
3.0
 40
3.0
 40
4.0
 40
4.0
 40
4.0
 40
5.0
 40
5.0
 40
5.0
 40
6.0
 40
6.0
 40
6.0
 40
7.0
 40
7.0
 40
7.0
 40
7.0
 10
597.3720997265645
 20
-353.3002971913575
 30
0.0
 10
597.3720997265645
 20
-353.3002971913575
 30
0.0
 10
681.4004566268395
 20
-353.3002971913575
 30
0.0
 10
681.4004566268395
 20
-353.3002971913575
 30
0.0
 10
691.8323466268393
 20
-353.3002971913575
 30
0.0
 10
704.5569816268398
 20
-361.3248521913574
 30
0.0
 10
709.8302216268384
 20
-370.3810321913579
 30
0.0
 10
709.8302216268384
 20
-370.3810321913579
 30
0.0
 10
739.2917516268389
 20
-420.5916471913578
 30
0.0
 10
739.2917516268389
 20
-420.5916471913578
 30
0.0
 10
739.2917516268389
 20
-420.5916471913578
 30
0.0
 10
678.6491766268409
 20
-456.7020921913581
 30
0.0
 10
678.6491766268409
 20
-456.7020921913581
 30
0.0
 10
678.6491766268409
 20
-456.7020921913581
 30
0.0
 10
627.7506989591365
 20
-369.1200871913579
 30
0.0
 10
627.7506989591365
 20
-369.1200871913579
 30
0.0
 10
622.3627990952463
 20
-359.7199271913578
 30
0.0
 10
612.3894443471945
 20
-353.3002971913575
 30
0.0
 10
597.3720997265645
 20
-353.3002971913575
 30
0.0
 10
597.3720997265645
 20
-353.3002971913575
 30
0.0
 10
597.3720997265645
 20
-353.3002971913575
 30
0.0
 10
597.3720997265645
 20
-353.3002971913575
 30
0.0
  0
HATCH
  5
7D
330
70
100
AcDbEntity
  8
Layer 1
 62
    18
420
        0
440
 33554687
100
AcDbHatch
 10
0.0
 20
0.0
 30
0.0
210
0.0
220
0.0
230
1.0
  2
SOLID
 70
     1
 71
     1
 91
        1
 92
        1
 93
        1
 72
     4
 94
        3
 73
     0
 74
     0
 95
       26
 96
       22
 40
0.0
 40
0.0
 40
0.0
 40
0.0
 40
1.0
 40
1.0
 40
1.0
 40
2.0
 40
2.0
 40
2.0
 40
3.0
 40
3.0
 40
3.0
 40
4.0
 40
4.0
 40
4.0
 40
5.0
 40
5.0
 40
5.0
 40
6.0
 40
6.0
 40
6.0
 40
7.0
 40
7.0
 40
7.0
 40
7.0
 10
597.3720997265645
 20
-353.3002971913575
 10
597.3720997265645
 20
-353.3002971913575
 10
681.4004566268395
 20
-353.3002971913575
 10
681.4004566268395
 20
-353.3002971913575
 10
691.8323466268393
 20
-353.3002971913575
 10
704.5569816268398
 20
-361.3248521913574
 10
709.8302216268384
 20
-370.3810321913579
 10
709.8302216268384
 20
-370.3810321913579
 10
739.2917516268389
 20
-420.5916471913578
 10
739.2917516268389
 20
-420.5916471913578
 10
739.2917516268389
 20
-420.5916471913578
 10
678.6491766268409
 20
-456.7020921913581
 10
678.6491766268409
 20
-456.7020921913581
 10
678.6491766268409
 20
-456.7020921913581
 10
627.7506989591365
 20
-369.1200871913579
 10
627.7506989591365
 20
-369.1200871913579
 10
622.3627990952463
 20
-359.7199271913578
 10
612.3894443471945
 20
-353.3002971913575
 10
597.3720997265645
 20
-353.3002971913575
 10
597.3720997265645
 20
-353.3002971913575
 10
597.3720997265645
 20
-353.3002971913575
 10
597.3720997265645
 20
-353.3002971913575
 97
        0
 97
        1
330
7C
 75
     0
 76
     1
 98
        1
 10
0.0
 20
0.0
450
        0
451
        0
460
0.0
461
0.0
452
        0
462
0.0
453
        0
470

  0
SPLINE
  5
7E
330
70
100
AcDbEntity
  8
Layer 1
100
AcDbSpline
210
0.0
220
0.0
230
1.0
 70
    11
 71
     3
 72
    35
 73
    31
 74
     0
 42
0.0000000001
 43
0.0000000001
 40
0.0
 40
0.0
 40
0.0
 40
0.0
 40
1.0
 40
1.0
 40
1.0
 40
2.0
 40
2.0
 40
2.0
 40
3.0
 40
3.0
 40
3.0
 40
4.0
 40
4.0
 40
4.0
 40
5.0
 40
5.0
 40
5.0
 40
6.0
 40
6.0
 40
6.0
 40
7.0
 40
7.0
 40
7.0
 40
8.0
 40
8.0
 40
8.0
 40
9.0
 40
9.0
 40
9.0
 40
10.0
 40
10.0
 40
10.0
 40
10.0
 10
682.5468116268385
 20
-353.3002971913575
 30
0.0
 10
682.5468116268385
 20
-353.3002971913575
 30
0.0
 10
598.5184546976052
 20
-353.3002971913575
 30
0.0
 10
598.5184546976052
 20
-353.3002971913575
 30
0.0
 10
588.0865649611369
 20
-353.3002971913575
 30
0.0
 10
575.3619366268403
 20
-361.3248521913574
 30
0.0
 10
570.0886904158023
 20
-370.3810321913579
 30
0.0
 10
570.0886904158023
 20
-370.3810321913579
 30
0.0
 10
540.6271611600622
 20
-420.5916471913578
 30
0.0
 10
540.6271611600622
 20
-420.5916471913578
 30
0.0
 10
540.6271611600622
 20
-420.5916471913578
 30
0.0
 10
520.2219166755421
 20
-409.4719371913579
 30
0.0
 10
520.2219166755421
 20
-409.4719371913579
 30
0.0
 10
520.2219166755421
 20
-409.4719371913579
 30
0.0
 10
552.0907866268389
 20
-470.1144771913577
 30
0.0
 10
552.0907866268389
 20
-470.1144771913577
 30
0.0
 10
552.0907866268389
 20
-470.1144771913577
 30
0.0
 10
620.9871591299979
 20
-467.7071421913579
 30
0.0
 10
620.9871591299979
 20
-467.7071421913579
 30
0.0
 10
620.9871591299979
 20
-467.7071421913579
 30
0.0
 10
601.269734628102
 20
-456.7020921913581
 30
0.0
 10
601.269734628102
 20
-456.7020921913581
 30
0.0
 10
601.269734628102
 20
-456.7020921913581
 30
0.0
 10
652.1682033422966
 20
-369.1200871913579
 30
0.0
 10
652.1682033422966
 20
-369.1200871913579
 30
0.0
 10
657.5561032061869
 20
-359.7199271913578
 30
0.0
 10
667.5294579542387
 20
-353.3002971913575
 30
0.0
 10
682.5468116268385
 20
-353.3002971913575
 30
0.0
 10
682.5468116268385
 20
-353.3002971913575
 30
0.0
 10
682.5468116268385
 20
-353.3002971913575
 30
0.0
 10
682.5468116268385
 20
-353.3002971913575
 30
0.0
  0
HATCH
  5
7F
330
70
100
AcDbEntity
  8
Layer 1
 62
    18
420
        0
440
 33554687
100
AcDbHatch
 10
0.0
 20
0.0
 30
0.0
210
0.0
220
0.0
230
1.0
  2
SOLID
 70
     1
 71
     1
 91
        1
 92
        1
 93
        1
 72
     4
 94
        3
 73
     0
 74
     0
 95
       35
 96
       31
 40
0.0
 40
0.0
 40
0.0
 40
0.0
 40
1.0
 40
1.0
 40
1.0
 40
2.0
 40
2.0
 40
2.0
 40
3.0
 40
3.0
 40
3.0
 40
4.0
 40
4.0
 40
4.0
 40
5.0
 40
5.0
 40
5.0
 40
6.0
 40
6.0
 40
6.0
 40
7.0
 40
7.0
 40
7.0
 40
8.0
 40
8.0
 40
8.0
 40
9.0
 40
9.0
 40
9.0
 40
10.0
 40
10.0
 40
10.0
 40
10.0
 10
682.5468116268385
 20
-353.3002971913575
 10
682.5468116268385
 20
-353.3002971913575
 10
598.5184546976052
 20
-353.3002971913575
 10
598.5184546976052
 20
-353.3002971913575
 10
588.0865649611369
 20
-353.3002971913575
 10
575.3619366268403
 20
-361.3248521913574
 10
570.0886904158023
 20
-370.3810321913579
 10
570.0886904158023
 20
-370.3810321913579
 10
540.6271611600622
 20
-420.5916471913578
 10
540.6271611600622
 20
-420.5916471913578
 10
540.6271611600622
 20
-420.5916471913578
 10
520.2219166755421
 20
-409.4719371913579
 10
520.2219166755421
 20
-409.4719371913579
 10
520.2219166755421
 20
-409.4719371913579
 10
552.0907866268389
 20
-470.1144771913577
 10
552.0907866268389
 20
-470.1144771913577
 10
552.0907866268389
 20
-470.1144771913577
 10
620.9871591299979
 20
-467.7071421913579
 10
620.9871591299979
 20
-467.7071421913579
 10
620.9871591299979
 20
-467.7071421913579
 10
601.269734628102
 20
-456.7020921913581
 10
601.269734628102
 20
-456.7020921913581
 10
601.269734628102
 20
-456.7020921913581
 10
652.1682033422966
 20
-369.1200871913579
 10
652.1682033422966
 20
-369.1200871913579
 10
657.5561032061869
 20
-359.7199271913578
 10
667.5294579542387
 20
-353.3002971913575
 10
682.5468116268385
 20
-353.3002971913575
 10
682.5468116268385
 20
-353.3002971913575
 10
682.5468116268385
 20
-353.3002971913575
 10
682.5468116268385
 20
-353.3002971913575
 97
        0
 97
        1
330
7E
 75
     0
 76
     1
 98
        1
 10
0.0
 20
0.0
450
        0
451
        0
460
0.0
461
0.0
452
        0
462
0.0
453
        0
470

  0
SPLINE
  5
80
330
70
100
AcDbEntity
  8
Layer 1
100
AcDbSpline
210
0.0
220
0.0
230
1.0
 70
    11
 71
     3
 72
    26
 73
    22
 74
     0
 42
0.0000000001
 43
0.0000000001
 40
0.0
 40
0.0
 40
0.0
 40
0.0
 40
1.0
 40
1.0
 40
1.0
 40
2.0
 40
2.0
 40
2.0
 40
3.0
 40
3.0
 40
3.0
 40
4.0
 40
4.0
 40
4.0
 40
5.0
 40
5.0
 40
5.0
 40
6.0
 40
6.0
 40
6.0
 40
7.0
 40
7.0
 40
7.0
 40
7.0
 10
521.3682716465828
 20
-632.6686871913588
 30
0.0
 10
521.3682716465828
 20
-632.6686871913588
 30
0.0
 10
479.4114277065018
 20
-559.8746721913594
 30
0.0
 10
479.4114277065018
 20
-559.8746721913594
 30
0.0
 10
474.138152839716
 20
-550.818492191358
 30
0.0
 10
474.7113478252358
 20
-535.9157021913579
 30
0.0
 10
479.9846226920217
 20
-526.7448621913572
 30
0.0
 10
479.9846226920217
 20
-526.7448621913572
 30
0.0
 10
508.7582969651375
 20
-476.0756421913583
 30
0.0
 10
508.7582969651375
 20
-476.0756421913583
 30
0.0
 10
508.7582969651375
 20
-476.0756421913583
 30
0.0
 10
570.3179404100101
 20
-510.5811621913581
 30
0.0
 10
570.3179404100101
 20
-510.5811621913581
 30
0.0
 10
570.3179404100101
 20
-510.5811621913581
 30
0.0
 10
519.87800668423
 20
-598.507112191357
 30
0.0
 10
519.87800668423
 20
-598.507112191357
 30
0.0
 10
514.4901068203398
 20
-607.7927171913579
 30
0.0
 10
513.9169468348191
 20
-619.7147671913589
 30
0.0
 10
521.3682716465828
 20
-632.6686871913588
 30
0.0
 10
521.3682716465828
 20
-632.6686871913588
 30
0.0
 10
521.3682716465828
 20
-632.6686871913588
 30
0.0
 10
521.3682716465828
 20
-632.6686871913588
 30
0.0
  0
HATCH
  5
81
330
70
100
AcDbEntity
  8
Layer 1
 62
    18
420
        0
440
 33554687
100
AcDbHatch
 10
0.0
 20
0.0
 30
0.0
210
0.0
220
0.0
230
1.0
  2
SOLID
 70
     1
 71
     1
 91
        1
 92
        1
 93
        1
 72
     4
 94
        3
 73
     0
 74
     0
 95
       26
 96
       22
 40
0.0
 40
0.0
 40
0.0
 40
0.0
 40
1.0
 40
1.0
 40
1.0
 40
2.0
 40
2.0
 40
2.0
 40
3.0
 40
3.0
 40
3.0
 40
4.0
 40
4.0
 40
4.0
 40
5.0
 40
5.0
 40
5.0
 40
6.0
 40
6.0
 40
6.0
 40
7.0
 40
7.0
 40
7.0
 40
7.0
 10
521.3682716465828
 20
-632.6686871913588
 10
521.3682716465828
 20
-632.6686871913588
 10
479.4114277065018
 20
-559.8746721913594
 10
479.4114277065018
 20
-559.8746721913594
 10
474.138152839716
 20
-550.818492191358
 10
474.7113478252358
 20
-535.9157021913579
 10
479.9846226920217
 20
-526.7448621913572
 10
479.9846226920217
 20
-526.7448621913572
 10
508.7582969651375
 20
-476.0756421913583
 10
508.7582969651375
 20
-476.0756421913583
 10
508.7582969651375
 20
-476.0756421913583
 10
570.3179404100101
 20
-510.5811621913581
 10
570.3179404100101
 20
-510.5811621913581
 10
570.3179404100101
 20
-510.5811621913581
 10
519.87800668423
 20
-598.507112191357
 10
519.87800668423
 20
-598.507112191357
 10
514.4901068203398
 20
-607.7927171913579
 10
513.9169468348191
 20
-619.7147671913589
 10
521.3682716465828
 20
-632.6686871913588
 10
521.3682716465828
 20
-632.6686871913588
 10
521.3682716465828
 20
-632.6686871913588
 10
521.3682716465828
 20
-632.6686871913588
 97
        0
 97
        1
330
80
 75
     0
 76
     1
 98
        1
 10
0.0
 20
0.0
450
        0
451
        0
460
0.0
461
0.0
452
        0
462
0.0
453
        0
470

  0
SPLINE
  5
82
330
70
100
AcDbEntity
  8
Layer 1
100
AcDbSpline
210
0.0
220
0.0
230
1.0
 70
    11
 71
     3
 72
    35
 73
    31
 74
     0
 42
0.0000000001
 43
0.0000000001
 40
0.0
 40
0.0
 40
0.0
 40
0.0
 40
1.0
 40
1.0
 40
1.0
 40
2.0
 40
2.0
 40
2.0
 40
3.0
 40
3.0
 40
3.0
 40
4.0
 40
4.0
 40
4.0
 40
5.0
 40
5.0
 40
5.0
 40
6.0
 40
6.0
 40
6.0
 40
7.0
 40
7.0
 40
7.0
 40
8.0
 40
8.0
 40
8.0
 40
9.0
 40
9.0
 40
9.0
 40
10.0
 40
10.0
 40
10.0
 40
10.0
 10
478.8382677209811
 20
-558.9575671913571
 30
0.0
 10
478.8382677209811
 20
-558.9575671913571
 30
0.0
 10
520.795111661062
 20
-631.6370271913584
 30
0.0
 10
520.795111661062
 20
-631.6370271913584
 30
0.0
 10
526.0683865278479
 20
-640.6932071913579
 30
0.0
 10
539.251556194813
 20
-647.6861021913573
 30
0.0
 10
549.7980709283856
 20
-647.8006571913574
 30
0.0
 10
549.7980709283856
 20
-647.8006571913574
 30
0.0
 10
608.1478994543449
 20
-648.144602191358
 30
0.0
 10
608.1478994543449
 20
-648.144602191358
 30
0.0
 10
608.1478994543449
 20
-648.144602191358
 30
0.0
 10
608.491809445657
 20
-671.4157521913584
 30
0.0
 10
608.491809445657
 20
-671.4157521913584
 30
0.0
 10
608.491809445657
 20
-671.4157521913584
 30
0.0
 10
645.1753866268409
 20
-613.524422191358
 30
0.0
 10
645.1753866268409
 20
-613.524422191358
 30
0.0
 10
645.1753866268409
 20
-613.524422191358
 30
0.0
 10
608.6064344427613
 20
-555.0599321913578
 30
0.0
 10
608.6064344427613
 20
-555.0599321913578
 30
0.0
 10
608.6064344427613
 20
-555.0599321913578
 30
0.0
 10
609.0650044311769
 20
-577.6432971913563
 30
0.0
 10
609.0650044311769
 20
-577.6432971913563
 30
0.0
 10
609.0650044311769
 20
-577.6432971913563
 30
0.0
 10
507.6119419940969
 20
-577.2994571913586
 30
0.0
 10
507.6119419940969
 20
-577.2994571913586
 30
0.0
 10
496.8361422663165
 20
-577.2994571913586
 30
0.0
 10
486.2895925327448
 20
-571.9114871913588
 30
0.0
 10
478.8382677209811
 20
-558.9575671913571
 30
0.0
 10
478.8382677209811
 20
-558.9575671913571
 30
0.0
 10
478.8382677209811
 20
-558.9575671913571
 30
0.0
 10
478.8382677209811
 20
-558.9575671913571
 30
0.0
  0
HATCH
  5
83
330
70
100
AcDbEntity
  8
Layer 1
 62
    18
420
        0
440
 33554687
100
AcDbHatch
 10
0.0
 20
0.0
 30
0.0
210
0.0
220
0.0
230
1.0
  2
SOLID
 70
     1
 71
     1
 91
        1
 92
        1
 93
        1
 72
     4
 94
        3
 73
     0
 74
     0
 95
       35
 96
       31
 40
0.0
 40
0.0
 40
0.0
 40
0.0
 40
1.0
 40
1.0
 40
1.0
 40
2.0
 40
2.0
 40
2.0
 40
3.0
 40
3.0
 40
3.0
 40
4.0
 40
4.0
 40
4.0
 40
5.0
 40
5.0
 40
5.0
 40
6.0
 40
6.0
 40
6.0
 40
7.0
 40
7.0
 40
7.0
 40
8.0
 40
8.0
 40
8.0
 40
9.0
 40
9.0
 40
9.0
 40
10.0
 40
10.0
 40
10.0
 40
10.0
 10
478.8382677209811
 20
-558.9575671913571
 10
478.8382677209811
 20
-558.9575671913571
 10
520.795111661062
 20
-631.6370271913584
 10
520.795111661062
 20
-631.6370271913584
 10
526.0683865278479
 20
-640.6932071913579
 10
539.251556194813
 20
-647.6861021913573
 10
549.7980709283856
 20
-647.8006571913574
 10
549.7980709283856
 20
-647.8006571913574
 10
608.1478994543449
 20
-648.144602191358
 10
608.1478994543449
 20
-648.144602191358
 10
608.1478994543449
 20
-648.144602191358
 10
608.491809445657
 20
-671.4157521913584
 10
608.491809445657
 20
-671.4157521913584
 10
608.491809445657
 20
-671.4157521913584
 10
645.1753866268409
 20
-613.524422191358
 10
645.1753866268409
 20
-613.524422191358
 10
645.1753866268409
 20
-613.524422191358
 10
608.6064344427613
 20
-555.0599321913578
 10
608.6064344427613
 20
-555.0599321913578
 10
608.6064344427613
 20
-555.0599321913578
 10
609.0650044311769
 20
-577.6432971913563
 10
609.0650044311769
 20
-577.6432971913563
 10
609.0650044311769
 20
-577.6432971913563
 10
507.6119419940969
 20
-577.2994571913586
 10
507.6119419940969
 20
-577.2994571913586
 10
496.8361422663165
 20
-577.2994571913586
 10
486.2895925327448
 20
-571.9114871913588
 10
478.8382677209811
 20
-558.9575671913571
 10
478.8382677209811
 20
-558.9575671913571
 10
478.8382677209811
 20
-558.9575671913571
 10
478.8382677209811
 20
-558.9575671913571
 97
        0
 97
        1
330
82
 75
     0
 76
     1
 98
        1
 10
0.0
 20
0.0
450
        0
451
        0
460
0.0
461
0.0
452
        0
462
0.0
453
        0
470

  0
SPLINE
  5
84
330
70
100
AcDbEntity
  8
Layer 1
100
AcDbSpline
210
0.0
220
0.0
230
1.0
 70
    11
 71
     3
 72
    26
 73
    22
 74
     0
 42
0.0000000001
 43
0.0000000001
 40
0.0
 40
0.0
 40
0.0
 40
0.0
 40
1.0
 40
1.0
 40
1.0
 40
2.0
 40
2.0
 40
2.0
 40
3.0
 40
3.0
 40
3.0
 40
4.0
 40
4.0
 40
4.0
 40
5.0
 40
5.0
 40
5.0
 40
6.0
 40
6.0
 40
6.0
 40
7.0
 40
7.0
 40
7.0
 40
7.0
 10
801.309931626838
 20
-558.8430471913579
 30
0.0
 10
801.309931626838
 20
-558.8430471913579
 30
0.0
 10
759.3530866268411
 20
-631.5223671913591
 30
0.0
 10
759.3530866268411
 20
-631.5223671913591
 30
0.0
 10
754.0798116268397
 20
-640.5785471913587
 30
0.0
 10
740.7820166268393
 20
-647.6861021913573
 30
0.0
 10
730.3501266268394
 20
-647.6861021913573
 30
0.0
 10
730.3501266268394
 20
-647.6861021913573
 30
0.0
 10
672.0002528412969
 20
-648.0299421913587
 30
0.0
 10
672.0002528412969
 20
-648.0299421913587
 30
0.0
 10
672.0002528412969
 20
-648.0299421913587
 30
0.0
 10
671.0831828644641
 20
-577.528672191358
 30
0.0
 10
671.0831828644641
 20
-577.528672191358
 30
0.0
 10
671.0831828644641
 20
-577.528672191358
 30
0.0
 10
772.5362566268413
 20
-577.1848321913567
 30
0.0
 10
772.5362566268413
 20
-577.1848321913567
 30
0.0
 10
783.1974316268388
 20
-577.1848321913567
 30
0.0
 10
793.858571626839
 20
-571.7968271913577
 30
0.0
 10
801.309931626838
 20
-558.8430471913579
 30
0.0
 10
801.309931626838
 20
-558.8430471913579
 30
0.0
 10
801.309931626838
 20
-558.8430471913579
 30
0.0
 10
801.309931626838
 20
-558.8430471913579
 30
0.0
  0
HATCH
  5
85
330
70
100
AcDbEntity
  8
Layer 1
 62
    18
420
        0
440
 33554687
100
AcDbHatch
 10
0.0
 20
0.0
 30
0.0
210
0.0
220
0.0
230
1.0
  2
SOLID
 70
     1
 71
     1
 91
        1
 92
        1
 93
        1
 72
     4
 94
        3
 73
     0
 74
     0
 95
       26
 96
       22
 40
0.0
 40
0.0
 40
0.0
 40
0.0
 40
1.0
 40
1.0
 40
1.0
 40
2.0
 40
2.0
 40
2.0
 40
3.0
 40
3.0
 40
3.0
 40
4.0
 40
4.0
 40
4.0
 40
5.0
 40
5.0
 40
5.0
 40
6.0
 40
6.0
 40
6.0
 40
7.0
 40
7.0
 40
7.0
 40
7.0
 10
801.309931626838
 20
-558.8430471913579
 10
801.309931626838
 20
-558.8430471913579
 10
759.3530866268411
 20
-631.5223671913591
 10
759.3530866268411
 20
-631.5223671913591
 10
754.0798116268397
 20
-640.5785471913587
 10
740.7820166268393
 20
-647.6861021913573
 10
730.3501266268394
 20
-647.6861021913573
 10
730.3501266268394
 20
-647.6861021913573
 10
672.0002528412969
 20
-648.0299421913587
 10
672.0002528412969
 20
-648.0299421913587
 10
672.0002528412969
 20
-648.0299421913587
 10
671.0831828644641
 20
-577.528672191358
 10
671.0831828644641
 20
-577.528672191358
 10
671.0831828644641
 20
-577.528672191358
 10
772.5362566268413
 20
-577.1848321913567
 10
772.5362566268413
 20
-577.1848321913567
 10
783.1974316268388
 20
-577.1848321913567
 10
793.858571626839
 20
-571.7968271913577
 10
801.309931626838
 20
-558.8430471913579
 10
801.309931626838
 20
-558.8430471913579
 10
801.309931626838
 20
-558.8430471913579
 10
801.309931626838
 20
-558.8430471913579
 97
        0
 97
        1
330
84
 75
     0
 76
     1
 98
        1
 10
0.0
 20
0.0
450
        0
451
        0
460
0.0
461
0.0
452
        0
462
0.0
453
        0
470

  0
SPLINE
  5
86
330
70
100
AcDbEntity
  8
Layer 1
100
AcDbSpline
210
0.0
220
0.0
230
1.0
 70
    11
 71
     3
 72
    35
 73
    31
 74
     0
 42
0.0000000001
 43
0.0000000001
 40
0.0
 40
0.0
 40
0.0
 40
0.0
 40
1.0
 40
1.0
 40
1.0
 40
2.0
 40
2.0
 40
2.0
 40
3.0
 40
3.0
 40
3.0
 40
4.0
 40
4.0
 40
4.0
 40
5.0
 40
5.0
 40
5.0
 40
6.0
 40
6.0
 40
6.0
 40
7.0
 40
7.0
 40
7.0
 40
8.0
 40
8.0
 40
8.0
 40
9.0
 40
9.0
 40
9.0
 40
10.0
 40
10.0
 40
10.0
 40
10.0
 10
758.7799266268393
 20
-632.5540271913578
 30
0.0
 10
758.7799266268393
 20
-632.5540271913578
 30
0.0
 10
800.7367716268399
 20
-559.7600121913583
 30
0.0
 10
800.7367716268399
 20
-559.7600121913583
 30
0.0
 10
806.0100116268385
 20
-550.818492191358
 30
0.0
 10
805.4368166268396
 20
-535.8010421913568
 30
0.0
 10
800.1635766268409
 20
-526.6302371913589
 30
0.0
 10
800.1635766268409
 20
-526.6302371913589
 30
0.0
 10
771.3899016268405
 20
-475.9609821913581
 30
0.0
 10
771.3899016268405
 20
-475.9609821913581
 30
0.0
 10
771.3899016268405
 20
-475.9609821913581
 30
0.0
 10
791.3365766268398
 20
-463.9241671913587
 30
0.0
 10
791.3365766268398
 20
-463.9241671913587
 30
0.0
 10
791.3365766268398
 20
-463.9241671913587
 30
0.0
 10
722.7841066268374
 20
-461.1729571913583
 30
0.0
 10
722.7841066268374
 20
-461.1729571913583
 30
0.0
 10
722.7841066268374
 20
-461.1729571913583
 30
0.0
 10
690.4567066268391
 20
-522.0448171913594
 30
0.0
 10
690.4567066268391
 20
-522.0448171913594
 30
0.0
 10
690.4567066268391
 20
-522.0448171913594
 30
0.0
 10
709.8302216268384
 20
-510.4665021913588
 30
0.0
 10
709.8302216268384
 20
-510.4665021913588
 30
0.0
 10
709.8302216268384
 20
-510.4665021913588
 30
0.0
 10
760.2701566268406
 20
-598.3924521913577
 30
0.0
 10
760.2701566268406
 20
-598.3924521913577
 30
0.0
 10
765.6580566268385
 20
-607.6779521913595
 30
0.0
 10
766.2312516268393
 20
-619.6002121913588
 30
0.0
 10
758.7799266268393
 20
-632.5540271913578
 30
0.0
 10
758.7799266268393
 20
-632.5540271913578
 30
0.0
 10
758.7799266268393
 20
-632.5540271913578
 30
0.0
 10
758.7799266268393
 20
-632.5540271913578
 30
0.0
  0
HATCH
  5
87
330
70
100
AcDbEntity
  8
Layer 1
 62
    18
420
        0
440
 33554687
100
AcDbHatch
 10
0.0
 20
0.0
 30
0.0
210
0.0
220
0.0
230
1.0
  2
SOLID
 70
     1
 71
     1
 91
        1
 92
        1
 93
        1
 72
     4
 94
        3
 73
     0
 74
     0
 95
       35
 96
       31
 40
0.0
 40
0.0
 40
0.0
 40
0.0
 40
1.0
 40
1.0
 40
1.0
 40
2.0
 40
2.0
 40
2.0
 40
3.0
 40
3.0
 40
3.0
 40
4.0
 40
4.0
 40
4.0
 40
5.0
 40
5.0
 40
5.0
 40
6.0
 40
6.0
 40
6.0
 40
7.0
 40
7.0
 40
7.0
 40
8.0
 40
8.0
 40
8.0
 40
9.0
 40
9.0
 40
9.0
 40
10.0
 40
10.0
 40
10.0
 40
10.0
 10
758.7799266268393
 20
-632.5540271913578
 10
758.7799266268393
 20
-632.5540271913578
 10
800.7367716268399
 20
-559.7600121913583
 10
800.7367716268399
 20
-559.7600121913583
 10
806.0100116268385
 20
-550.818492191358
 10
805.4368166268396
 20
-535.8010421913568
 10
800.1635766268409
 20
-526.6302371913589
 10
800.1635766268409
 20
-526.6302371913589
 10
771.3899016268405
 20
-475.9609821913581
 10
771.3899016268405
 20
-475.9609821913581
 10
771.3899016268405
 20
-475.9609821913581
 10
791.3365766268398
 20
-463.9241671913587
 10
791.3365766268398
 20
-463.9241671913587
 10
791.3365766268398
 20
-463.9241671913587
 10
722.7841066268374
 20
-461.1729571913583
 10
722.7841066268374
 20
-461.1729571913583
 10
722.7841066268374
 20
-461.1729571913583
 10
690.4567066268391
 20
-522.0448171913594
 10
690.4567066268391
 20
-522.0448171913594
 10
690.4567066268391
 20
-522.0448171913594
 10
709.8302216268384
 20
-510.4665021913588
 10
709.8302216268384
 20
-510.4665021913588
 10
709.8302216268384
 20
-510.4665021913588
 10
760.2701566268406
 20
-598.3924521913577
 10
760.2701566268406
 20
-598.3924521913577
 10
765.6580566268385
 20
-607.6779521913595
 10
766.2312516268393
 20
-619.6002121913588
 10
758.7799266268393
 20
-632.5540271913578
 10
758.7799266268393
 20
-632.5540271913578
 10
758.7799266268393
 20
-632.5540271913578
 10
758.7799266268393
 20
-632.5540271913578
 97
        0
 97
        1
330
86
 75
     0
 76
     1
 98
        1
 10
0.0
 20
0.0
450
        0
451
        0
460
0.0
461
0.0
452
        0
462
0.0
453
        0
470

  0
ELLIPSE
  5
88
330
70
100
AcDbEntity
  8
Layer 1
 62
    18
420
        0
370
   140
100
AcDbEllipse
 10
639.8529599154406
 20
-512.3580246913595
 30
0.0
 11
574.6913580246917
 21
0.0
 31
0.0
210
0.0
220
0.0
230
1.0
 40
0.7658180048335121
 41
0.0
 42
6.283185307179586
  0
ENDSEC
  0
SECTION
  2
OBJECTS
  0
DICTIONARY
  5
C
330
0
100
AcDbDictionary
281
     1
  3
ACAD_COLOR
350
63
  3
ACAD_DETAILVIEWSTYLE
350
6A
  3
ACAD_GROUP
350
D
  3
ACAD_LAYOUT
350
62
  3
ACAD_MATERIAL
350
10
  3
ACAD_MLEADERSTYLE
350
66
  3
ACAD_MLINESTYLE
350
5F
  3
ACAD_PLOTSETTINGS
350
61
  3
ACAD_PLOTSTYLENAME
350
E
  3
ACAD_SCALELIST
350
42
  3
ACAD_SECTIONVIEWSTYLE
350
68
  3
ACAD_TABLESTYLE
350
64
  3
ACAD_VISUALSTYLE
350
29
  3
ACDB_RECOMPOSE_DATA
350
91
  3
AcDbVariableDictionary
350
89
  0
DICTIONARY
  5
63
102
{ACAD_REACTORS
330
C
102
}
330
C
100
AcDbDictionary
281
     1
  0
DICTIONARY
  5
6A
102
{ACAD_REACTORS
330
C
102
}
330
C
100
AcDbDictionary
281
     1
  3
Imperial24
350
6B
  0
DICTIONARY
  5
D
102
{ACAD_REACTORS
330
C
102
}
330
C
100
AcDbDictionary
281
     1
  0
DICTIONARY
  5
62
102
{ACAD_REACTORS
330
C
102
}
330
C
100
AcDbDictionary
281
     1
  3
Layout1
350
6F
  3
Layout2
350
77
  3
Model
350
73
  0
DICTIONARY
  5
10
102
{ACAD_REACTORS
330
C
102
}
330
C
100
AcDbDictionary
281
     1
  3
ByBlock
350
19
  3
ByLayer
350
11
  3
Global
350
21
  0
DICTIONARY
  5
66
102
{ACAD_REACTORS
330
C
102
}
330
C
100
AcDbDictionary
281
     1
  3
Standard
350
67
  0
DICTIONARY
  5
5F
102
{ACAD_REACTORS
330
C
102
}
330
C
100
AcDbDictionary
281
     1
  3
Standard
350
60
  0
DICTIONARY
  5
61
102
{ACAD_REACTORS
330
C
102
}
330
C
100
AcDbDictionary
281
     1
  0
ACDBDICTIONARYWDFLT
  5
E
102
{ACAD_REACTORS
330
C
102
}
330
C
100
AcDbDictionary
281
     1
  3
Normal
350
F
100
AcDbDictionaryWithDefault
340
F
  0
DICTIONARY
  5
42
102
{ACAD_REACTORS
330
C
102
}
330
C
100
AcDbDictionary
281
     1
  3
A0
350
43
  3
A1
350
44
  3
A2
350
45
  3
A3
350
46
  3
A4
350
47
  3
A5
350
48
  3
A6
350
49
  3
A7
350
4A
  3
A8
350
4B
  3
A9
350
4C
  3
B0
350
4D
  3
B1
350
4E
  3
B2
350
4F
  3
B3
350
50
  3
B4
350
51
  3
B5
350
52
  3
B6
350
53
  0
DICTIONARY
  5
68
102
{ACAD_REACTORS
330
C
102
}
330
C
100
AcDbDictionary
281
     1
  3
Imperial24
350
69
  0
DICTIONARY
  5
64
102
{ACAD_REACTORS
330
C
102
}
330
C
100
AcDbDictionary
281
     1
  3
Standard
350
65
  0
DICTIONARY
  5
29
102
{ACAD_REACTORS
330
C
102
}
330
C
100
AcDbDictionary
281
     1
  3
2dWireframe
350
2F
  3
Basic
350
2E
  3
Brighten
350
35
  3
ColorChange
350
39
  3
Conceptual
350
32
  3
Dim
350
34
  3
EdgeColorOff
350
41
  3
Facepattern
350
38
  3
Flat
350
2A
  3
FlatWithEdges
350
2B
  3
Gouraud
350
2C
  3
GouraudWithEdges
350
2D
  3
Hidden
350
31
  3
JitterOff
350
3F
  3
Linepattern
350
37
  3
OverhangOff
350
40
  3
Realistic
350
33
  3
Shaded
350
3E
  3
Shaded with edges
350
3D
  3
Shades of Gray
350
3A
  3
Sketchy
350
3B
  3
Thicken
350
36
  3
Wireframe
350
30
  3
X-Ray
350
3C
  0
XRECORD
  5
91
102
{ACAD_REACTORS
330
C
102
}
330
C
100
AcDbXrecord
280
     1
 90
        1
330
65
  0
DICTIONARY
  5
89
102
{ACAD_REACTORS
330
C
102
}
330
C
100
AcDbDictionary
281
     1
  3
CANNOSCALE
350
8E
  3
CMLEADERSTYLE
350
8B
  3
CTABLESTYLE
350
8A
  3
CVIEWDETAILSTYLE
350
8C
  3
CVIEWSECTIONSTYLE
350
8D
  0
ACDBDETAILVIEWSTYLE
  5
6B
102
{ACAD_REACTORS
330
6A
102
}
330
6A
100
AcDbModelDocViewStyle
 70
     0
  3
Imperial24
290
     1
300
Imperial24
 90
        0
100
AcDbDetailViewStyle
 70
     0
 71
     0
 90
        3
 71
     1
340
55
 62
   256
 40
0.24
340
0
 62
   256
 40
0.24
300

 40
0.36
280
     3
 71
     2
340
5D
 90
       25
 62
   256
 71
     3
340
55
 62
   256
 40
0.24
 90
        1
 40
0.75
 90
        1
300
%<\AcVar ViewType \f "%tc1">% %<\AcVar ViewDetailId>%\PSCALE %<\AcVar ViewScale \f "%sn">%
 71
     4
340
5D
 90
       25
 62
   256
340
5D
 90
       25
 62
   256
280
     0
  0
LAYOUT
  5
6F
102
{ACAD_REACTORS
330
62
102
}
330
62
100
AcDbPlotSettings
  1

  2

  4

  6

 40
0.0
 41
0.0
 42
0.0
 43
0.0
 44
0.0
 45
0.0
 46
0.0
 47
0.0
 48
0.0
 49
0.0
140
0.0
141
0.0
142
1.0
143
1.0
 70
   688
 72
     0
 73
     0
 74
     5
  7

 75
    16
147
1.0
 76
     0
 77
     2
 78
   300
148
0.0
149
0.0
100
AcDbLayout
  1
Layout1
 70
     1
 71
     1
 10
0.0
 20
0.0
 11
12.0
 21
9.0
 12
0.0
 22
0.0
 32
0.0
 14
0.0
 24
0.0
 34
0.0
 15
0.0
 25
0.0
 35
0.0
146
0.0
 13
0.0
 23
0.0
 33
0.0
 16
1.0
 26
0.0
 36
0.0
 17
0.0
 27
1.0
 37
0.0
 76
     0
330
6C
  0
LAYOUT
  5
77
102
{ACAD_REACTORS
330
62
102
}
330
62
100
AcDbPlotSettings
  1

  2

  4

  6

 40
0.0
 41
0.0
 42
0.0
 43
0.0
 44
0.0
 45
0.0
 46
0.0
 47
0.0
 48
0.0
 49
0.0
140
0.0
141
0.0
142
1.0
143
1.0
 70
   688
 72
     0
 73
     0
 74
     5
  7

 75
    16
147
1.0
 76
     0
 77
     2
 78
   300
148
0.0
149
0.0
100
AcDbLayout
  1
Layout2
 70
     1
 71
     2
 10
0.0
 20
0.0
 11
12.0
 21
9.0
 12
0.0
 22
0.0
 32
0.0
 14
0.0
 24
0.0
 34
0.0
 15
0.0
 25
0.0
 35
0.0
146
0.0
 13
0.0
 23
0.0
 33
0.0
 16
1.0
 26
0.0
 36
0.0
 17
0.0
 27
1.0
 37
0.0
 76
     0
330
74
  0
LAYOUT
  5
73
102
{ACAD_REACTORS
330
62
102
}
330
62
100
AcDbPlotSettings
  1

  2

  4

  6

 40
0.0
 41
0.0
 42
0.0
 43
0.0
 44
0.0
 45
0.0
 46
0.0
 47
0.0
 48
0.0
 49
0.0
140
0.0
141
0.0
142
1.0
143
1.0
 70
  1712
 72
     0
 73
     0
 74
     0
  7

 75
     0
147
1.0
 76
     0
 77
     2
 78
   300
148
0.0
149
0.0
100
AcDbLayout
  1
Model
 70
     1
 71
     0
 10
0.0
 20
0.0
 11
12.0
 21
9.0
 12
0.0
 22
0.0
 32
0.0
 14
0.0
 24
0.0
 34
0.0
 15
0.0
 25
0.0
 35
0.0
146
0.0
 13
0.0
 23
0.0
 33
0.0
 16
1.0
 26
0.0
 36
0.0
 17
0.0
 27
1.0
 37
0.0
 76
     0
330
70
  0
MATERIAL
  5
19
102
{ACAD_XDICTIONARY
360
1A
102
}
102
{ACAD_REACTORS
330
10
102
}
330
10
100
AcDbMaterial
  1
ByBlock
 72
     0
 43
0.0208333333333333
 43
0.0
 43
0.0
 43
0.0
 43
0.0
 43
0.0208333333333333
 43
0.0
 43
0.0
 43
0.0
 43
0.0
 43
1.0
 43
0.0
 43
0.0
 43
0.0
 43
0.0
 43
1.0
 77
     0
 47
0.0208333333333333
 47
0.0
 47
0.0
 47
0.0
 47
0.0
 47
0.0208333333333333
 47
0.0
 47
0.0
 47
0.0
 47
0.0
 47
1.0
 47
0.0
 47
0.0
 47
0.0
 47
0.0
 47
1.0
171
     0
 49
0.0208333333333333
 49
0.0
 49
0.0
 49
0.0
 49
0.0
 49
0.0208333333333333
 49
0.0
 49
0.0
 49
0.0
 49
0.0
 49
1.0
 49
0.0
 49
0.0
 49
0.0
 49
0.0
 49
1.0
175
     0
142
0.0208333333333333
142
0.0
142
0.0
142
0.0
142
0.0
142
0.0208333333333333
142
0.0
142
0.0
142
0.0
142
0.0
142
1.0
142
0.0
142
0.0
142
0.0
142
0.0
142
1.0
179
     0
144
0.0208333333333333
144
0.0
144
0.0
144
0.0
144
0.0
144
0.0208333333333333
144
0.0
144
0.0
144
0.0
144
0.0
144
1.0
144
0.0
144
0.0
144
0.0
144
0.0
144
1.0
147
0.0208333333333333
147
0.0
147
0.0
147
0.0
147
0.0
147
0.0208333333333333
147
0.0
147
0.0
147
0.0
147
0.0
147
1.0
147
0.0
147
0.0
147
0.0
147
0.0
147
1.0
  0
MATERIAL
  5
11
102
{ACAD_XDICTIONARY
360
12
102
}
102
{ACAD_REACTORS
330
10
102
}
330
10
100
AcDbMaterial
  1
ByLayer
 72
     0
 43
0.0208333333333333
 43
0.0
 43
0.0
 43
0.0
 43
0.0
 43
0.0208333333333333
 43
0.0
 43
0.0
 43
0.0
 43
0.0
 43
1.0
 43
0.0
 43
0.0
 43
0.0
 43
0.0
 43
1.0
 77
     0
 47
0.0208333333333333
 47
0.0
 47
0.0
 47
0.0
 47
0.0
 47
0.0208333333333333
 47
0.0
 47
0.0
 47
0.0
 47
0.0
 47
1.0
 47
0.0
 47
0.0
 47
0.0
 47
0.0
 47
1.0
171
     0
 49
0.0208333333333333
 49
0.0
 49
0.0
 49
0.0
 49
0.0
 49
0.0208333333333333
 49
0.0
 49
0.0
 49
0.0
 49
0.0
 49
1.0
 49
0.0
 49
0.0
 49
0.0
 49
0.0
 49
1.0
175
     0
142
0.0208333333333333
142
0.0
142
0.0
142
0.0
142
0.0
142
0.0208333333333333
142
0.0
142
0.0
142
0.0
142
0.0
142
1.0
142
0.0
142
0.0
142
0.0
142
0.0
142
1.0
179
     0
144
0.0208333333333333
144
0.0
144
0.0
144
0.0
144
0.0
144
0.0208333333333333
144
0.0
144
0.0
144
0.0
144
0.0
144
1.0
144
0.0
144
0.0
144
0.0
144
0.0
144
1.0
147
0.0208333333333333
147
0.0
147
0.0
147
0.0
147
0.0
147
0.0208333333333333
147
0.0
147
0.0
147
0.0
147
0.0
147
1.0
147
0.0
147
0.0
147
0.0
147
0.0
147
1.0
  0
MATERIAL
  5
21
102
{ACAD_XDICTIONARY
360
22
102
}
102
{ACAD_REACTORS
330
10
102
}
330
10
100
AcDbMaterial
  1
Global
 72
     0
 43
0.0208333333333333
 43
0.0
 43
0.0
 43
0.0
 43
0.0
 43
0.0208333333333333
 43
0.0
 43
0.0
 43
0.0
 43
0.0
 43
1.0
 43
0.0
 43
0.0
 43
0.0
 43
0.0
 43
1.0
 77
     0
 47
0.0208333333333333
 47
0.0
 47
0.0
 47
0.0
 47
0.0
 47
0.0208333333333333
 47
0.0
 47
0.0
 47
0.0
 47
0.0
 47
1.0
 47
0.0
 47
0.0
 47
0.0
 47
0.0
 47
1.0
171
     0
 49
0.0208333333333333
 49
0.0
 49
0.0
 49
0.0
 49
0.0
 49
0.0208333333333333
 49
0.0
 49
0.0
 49
0.0
 49
0.0
 49
1.0
 49
0.0
 49
0.0
 49
0.0
 49
0.0
 49
1.0
175
     0
142
0.0208333333333333
142
0.0
142
0.0
142
0.0
142
0.0
142
0.0208333333333333
142
0.0
142
0.0
142
0.0
142
0.0
142
1.0
142
0.0
142
0.0
142
0.0
142
0.0
142
1.0
179
     0
144
0.0208333333333333
144
0.0
144
0.0
144
0.0
144
0.0
144
0.0208333333333333
144
0.0
144
0.0
144
0.0
144
0.0
144
1.0
144
0.0
144
0.0
144
0.0
144
0.0
144
1.0
147
0.0208333333333333
147
0.0
147
0.0
147
0.0
147
0.0
147
0.0208333333333333
147
0.0
147
0.0
147
0.0
147
0.0
147
1.0
147
0.0
147
0.0
147
0.0
147
0.0
147
1.0
  0
MLEADERSTYLE
  5
67
102
{ACAD_REACTORS
330
66
102
}
330
66
100
AcDbMLeaderStyle
179
     2
170
     2
171
     1
172
     0
 90
        2
 40
0.0
 41
0.0
173
     1
 91
-1056964608
340
5B
 92
       -2
290
     1
 42
0.09
291
     1
 43
0.36
  3
Standard
 44
0.18
300

342
55
174
     1
178
     6
175
     1
176
     0
 93
-1056964608
 45
0.18
292
     0
297
     0
 46
0.18
 94
-1056964608
 47
1.0
 49
1.0
140
1.0
293
     1
141
0.0
294
     1
177
     0
142
1.0
295
     1
296
     0
143
0.125
271
     0
272
     9
273
     9
298
     1
  0
MLINESTYLE
  5
60
102
{ACAD_REACTORS
330
5F
102
}
330
5F
100
AcDbMlineStyle
  2
STANDARD
 70
     0
  3

 62
   256
 51
90.0
 52
90.0
 71
     2
 49
0.5
 62
   256
  6
BYLAYER
 49
-0.5
 62
   256
  6
BYLAYER
  0
ACDBPLACEHOLDER
  5
F
102
{ACAD_REACTORS
330
E
102
}
330
E
  0
SCALE
  5
43
102
{ACAD_REACTORS
330
42
102
}
330
42
100
AcDbScale
 70
     0
300
1:1
140
1.0
141
1.0
290
     1
  0
SCALE
  5
44
102
{ACAD_REACTORS
330
42
102
}
330
42
100
AcDbScale
 70
     0
300
1/128" = 1'-0"
140
0.0078125
141
12.0
290
     0
  0
SCALE
  5
45
102
{ACAD_REACTORS
330
42
102
}
330
42
100
AcDbScale
 70
     0
300
1/64" = 1'-0"
140
0.015625
141
12.0
290
     0
  0
SCALE
  5
46
102
{ACAD_REACTORS
330
42
102
}
330
42
100
AcDbScale
 70
     0
300
1/32" = 1'-0"
140
0.03125
141
12.0
290
     0
  0
SCALE
  5
47
102
{ACAD_REACTORS
330
42
102
}
330
42
100
AcDbScale
 70
     0
300
1/16" = 1'-0"
140
0.0625
141
12.0
290
     0
  0
SCALE
  5
48
102
{ACAD_REACTORS
330
42
102
}
330
42
100
AcDbScale
 70
     0
300
3/32" = 1'-0"
140
0.09375
141
12.0
290
     0
  0
SCALE
  5
49
102
{ACAD_REACTORS
330
42
102
}
330
42
100
AcDbScale
 70
     0
300
1/8" = 1'-0"
140
0.125
141
12.0
290
     0
  0
SCALE
  5
4A
102
{ACAD_REACTORS
330
42
102
}
330
42
100
AcDbScale
 70
     0
300
3/16" = 1'-0"
140
0.1875
141
12.0
290
     0
  0
SCALE
  5
4B
102
{ACAD_REACTORS
330
42
102
}
330
42
100
AcDbScale
 70
     0
300
1/4" = 1'-0"
140
0.25
141
12.0
290
     0
  0
SCALE
  5
4C
102
{ACAD_REACTORS
330
42
102
}
330
42
100
AcDbScale
 70
     0
300
3/8" = 1'-0"
140
0.375
141
12.0
290
     0
  0
SCALE
  5
4D
102
{ACAD_REACTORS
330
42
102
}
330
42
100
AcDbScale
 70
     0
300
1/2" = 1'-0"
140
0.5
141
12.0
290
     0
  0
SCALE
  5
4E
102
{ACAD_REACTORS
330
42
102
}
330
42
100
AcDbScale
 70
     0
300
3/4" = 1'-0"
140
0.75
141
12.0
290
     0
  0
SCALE
  5
4F
102
{ACAD_REACTORS
330
42
102
}
330
42
100
AcDbScale
 70
     0
300
1" = 1'-0"
140
1.0
141
12.0
290
     0
  0
SCALE
  5
50
102
{ACAD_REACTORS
330
42
102
}
330
42
100
AcDbScale
 70
     0
300
1-1/2" = 1'-0"
140
1.5
141
12.0
290
     0
  0
SCALE
  5
51
102
{ACAD_REACTORS
330
42
102
}
330
42
100
AcDbScale
 70
     0
300
3" = 1'-0"
140
3.0
141
12.0
290
     0
  0
SCALE
  5
52
102
{ACAD_REACTORS
330
42
102
}
330
42
100
AcDbScale
 70
     0
300
6" = 1'-0"
140
6.0
141
12.0
290
     0
  0
SCALE
  5
53
102
{ACAD_REACTORS
330
42
102
}
330
42
100
AcDbScale
 70
     0
300
1'-0" = 1'-0"
140
12.0
141
12.0
290
     0
  0
ACDBSECTIONVIEWSTYLE
  5
69
102
{ACAD_REACTORS
330
68
102
}
330
68
100
AcDbModelDocViewStyle
 70
     0
  3
Imperial24
290
     1
300
Imperial24
 90
        0
100
AcDbSectionViewStyle
 70
     0
 71
     0
 90
       78
 71
     1
340
55
 62
   256
 40
0.24
340
0
340
0
 62
   256
 40
0.24
300
I, O, Q, S, X, Z
 40
0.48
 90
        3
 40
0.18
 90
        1
 71
     2
340
5D
 90
       25
 62
   256
340
5D
 90
       50
 62
   256
 40
0.24
 40
0.0
 40
0.24
 71
     3
340
55
 62
   256
 40
0.24
 90
        1
 40
0.75
 90
        1
300
%<\AcVar ViewType \f "%tc1">% %<\AcVar ViewSectionStartId>%-%<\AcVar ViewSectionEndId>%\PSCALE %<\AcVar ViewScale \f "%sn">%
 71
     4
 62
   256
 62
   257
300
ANSI31
 40
1.0
 90
        0
290
     0
290
     0
 90
        6
 40
0.0
 40
1.570796326794896
 40
0.2617993877991494
 40
1.308996938995747
 40
-0.2617993877991494
 40
1.832595714594046
  0
TABLESTYLE
  5
65
102
{ACAD_XDICTIONARY
360
8F
102
}
102
{ACAD_REACTORS
330
64
102
}
330
64
100
AcDbTableStyle
280
     0
  3
Standard
 70
     0
 71
     0
 40
0.06
 41
0.06
280
     0
281
     0
  7
Standard
140
0.18
170
     2
 62
     0
 63
     7
283
     0
 90
      512
 91
        0
  1

274
    -2
284
     1
 64
     0
275
    -2
285
     1
 65
     0
276
    -2
286
     1
 66
     0
277
    -2
287
     1
 67
     0
278
    -2
288
     1
 68
     0
279
    -2
289
     1
 69
     0
  7
Standard
140
0.25
170
     5
 62
     0
 63
     7
283
     0
 90
      512
 91
        0
  1

274
    -2
284
     1
 64
     0
275
    -2
285
     1
 65
     0
276
    -2
286
     1
 66
     0
277
    -2
287
     1
 67
     0
278
    -2
288
     1
 68
     0
279
    -2
289
     1
 69
     0
  7
Standard
140
0.18
170
     5
 62
     0
 63
     7
283
     0
 90
      512
 91
        0
  1

274
    -2
284
     1
 64
     0
275
    -2
285
     1
 65
     0
276
    -2
286
     1
 66
     0
277
    -2
287
     1
 67
     0
278
    -2
288
     1
 68
     0
279
    -2
289
     1
 69
     0
  0
VISUALSTYLE
  5
2F
102
{ACAD_REACTORS
330
29
102
}
330
29
100
AcDbVisualStyle
  2
2dWireframe
 70
     4
177
     3
291
     0
 70
    58
 90
        0
176
     1
 90
        2
176
     1
 90
        0
176
     1
 90
        0
176
     1
 40
0.6
176
     1
 40
30.0
176
     1
 62
     7
420
 16777215
176
     1
 90
        1
176
     1
 90
        4
176
     1
 62
     7
176
     1
 62
   257
176
     1
 90
        1
176
     1
 90
        1
176
     1
 40
1.0
176
     1
 90
        0
176
     1
 62
   257
176
     1
 40
1.0
176
     1
 90
        1
176
     1
 90
        6
176
     1
 90
        2
176
     1
 62
     7
176
     1
 90
        5
176
     1
 90
        0
176
     1
 90
        0
176
     1
290
     0
176
     1
 90
        1
176
     1
 40
0.0
176
     1
 90
        0
176
     1
290
     1
176
     1
290
     1
176
     1
290
     0
176
     1
290
     0
176
     1
290
     0
176
     1
290
     0
176
     1
290
     0
176
     1
290
     0
176
     1
290
     0
176
     1
 90
       50
176
     1
 40
0.0
176
     1
 40
1.0
176
     1
 90
        0
176
     1
 62
    18
420
        0
176
     1
 90
       50
176
     1
 90
        3
176
     1
 62
     5
420
      255
176
     1
290
     0
176
     1
 90
       50
176
     1
 90
       50
176
     1
 90
       50
176
     1
290
     0
176
     1
 90
       50
176
     1
 62
   256
176
     0
 40
1.0
176
     0
 90
        2
176
     1
  1
strokes_ogs.tif
176
     1
290
     0
176
     1
 40
1.0
176
     1
 40
1.0
176
     1
  0
VISUALSTYLE
  5
2E
102
{ACAD_REACTORS
330
29
102
}
330
29
100
AcDbVisualStyle
  2
Basic
 70
     7
177
     3
291
     1
 70
    58
 90
        1
176
     1
 90
        0
176
     1
 90
        1
176
     1
 90
        0
176
     1
 40
0.6
176
     1
 40
30.0
176
     1
 62
     7
420
 16777215
176
     1
 90
        0
176
     1
 90
        4
176
     1
 62
     7
176
     1
 62
   257
176
     1
 90
        1
176
     1
 90
        1
176
     1
 40
1.0
176
     1
 90
        8
176
     1
 62
     7
176
     1
 40
1.0
176
     1
 90
        1
176
     1
 90
        6
176
     1
 90
        2
176
     1
 62
     7
176
     1
 90
        5
176
     1
 90
        0
176
     1
 90
        0
176
     1
290
     0
176
     1
 90
        1
176
     1
 40
0.0
176
     1
 90
        0
176
     1
290
     0
176
     1
290
     1
176
     1
290
     1
176
     1
290
     0
176
     1
290
     0
176
     1
290
     0
176
     1
290
     0
176
     1
290
     0
176
     1
290
     0
176
     1
 90
       50
176
     1
 40
0.0
176
     1
 40
1.0
176
     1
 90
        0
176
     1
 62
    18
420
        0
176
     1
 90
       50
176
     1
 90
        3
176
     1
 62
     5
420
      255
176
     1
290
     0
176
     1
 90
       50
176
     1
 90
       50
176
     1
 90
       50
176
     1
290
     0
176
     1
 90
       50
176
     1
 62
   256
176
     0
 40
1.0
176
     0
 90
        2
176
     1
  1
strokes_ogs.tif
176
     1
290
     0
176
     1
 40
1.0
176
     1
 40
1.0
176
     1
  0
VISUALSTYLE
  5
35
102
{ACAD_REACTORS
330
29
102
}
330
29
100
AcDbVisualStyle
  2
Brighten
 70
    12
177
     3
291
     1
 70
    58
 90
        2
176
     1
 90
        2
176
     1
 90
        0
176
     1
 90
        0
176
     1
 40
0.6
176
     1
 40
30.0
176
     1
 62
     7
420
 16777215
176
     1
 90
        1
176
     1
 90
        4
176
     1
 62
     7
176
     1
 62
   257
176
     1
 90
        1
176
     1
 90
        1
176
     1
 40
1.0
176
     1
 90
        8
176
     1
 62
     7
176
     1
 40
1.0
176
     1
 90
        1
176
     1
 90
        6
176
     1
 90
        2
176
     1
 62
     7
176
     1
 90
        5
176
     1
 90
        0
176
     1
 90
        0
176
     1
290
     0
176
     1
 90
        1
176
     1
 40
50.0
176
     1
 90
        0
176
     1
290
     0
176
     1
290
     1
176
     1
290
     1
176
     1
290
     0
176
     1
290
     0
176
     1
290
     0
176
     1
290
     0
176
     1
290
     0
176
     1
290
     0
176
     1
 90
       50
176
     1
 40
0.0
176
     1
 40
1.0
176
     1
 90
        0
176
     1
 62
    18
420
        0
176
     1
 90
       50
176
     1
 90
        3
176
     1
 62
     5
420
      255
176
     1
290
     0
176
     1
 90
       50
176
     1
 90
       50
176
     1
 90
       50
176
     1
290
     0
176
     1
 90
       50
176
     1
 62
   256
176
     0
 40
1.0
176
     0
 90
        2
176
     1
  1
strokes_ogs.tif
176
     1
290
     0
176
     1
 40
1.0
176
     1
 40
1.0
176
     1
  0
VISUALSTYLE
  5
39
102
{ACAD_REACTORS
330
29
102
}
330
29
100
AcDbVisualStyle
  2
ColorChange
 70
    16
177
     3
291
     1
 70
    58
 90
        2
176
     1
 90
        2
176
     1
 90
        3
176
     1
 90
        0
176
     1
 40
0.6
176
     1
 40
30.0
176
     1
 62
     8
420
  8421504
176
     1
 90
        1
176
     1
 90
        4
176
     1
 62
     7
176
     1
 62
   257
176
     1
 90
        1
176
     1
 90
        1
176
     1
 40
1.0
176
     1
 90
        8
176
     1
 62
     8
420
  8421504
176
     1
 40
1.0
176
     1
 90
        1
176
     1
 90
        6
176
     1
 90
        2
176
     1
 62
     7
176
     1
 90
        5
176
     1
 90
        0
176
     1
 90
        0
176
     1
290
     0
176
     1
 90
        1
176
     1
 40
0.0
176
     1
 90
        0
176
     1
290
     0
176
     1
290
     1
176
     1
290
     1
176
     1
290
     0
176
     1
290
     0
176
     1
290
     0
176
     1
290
     0
176
     1
290
     0
176
     1
290
     0
176
     1
 90
       50
176
     1
 40
0.0
176
     1
 40
1.0
176
     1
 90
        0
176
     1
 62
    18
420
        0
176
     1
 90
       50
176
     1
 90
        3
176
     1
 62
     5
420
      255
176
     1
290
     0
176
     1
 90
       50
176
     1
 90
       50
176
     1
 90
       50
176
     1
290
     0
176
     1
 90
       50
176
     1
 62
   256
176
     0
 40
1.0
176
     0
 90
        2
176
     1
  1
strokes_ogs.tif
176
     1
290
     0
176
     1
 40
1.0
176
     1
 40
1.0
176
     1
  0
VISUALSTYLE
  5
32
102
{ACAD_REACTORS
330
29
102
}
330
29
100
AcDbVisualStyle
  2
Conceptual
 70
     9
177
     3
291
     0
 70
    58
 90
        3
176
     1
 90
        2
176
     1
 90
        0
176
     1
 90
        0
176
     1
 40
0.6
176
     1
 40
30.0
176
     1
 62
     7
420
 16777215
176
     1
 90
        2
176
     1
 90
        2
176
     1
 62
     7
176
     1
 62
   257
176
     1
 90
        1
176
     1
 90
        1
176
     1
 40
179.0
176
     1
 90
        8
176
     1
 62
     7
176
     1
 40
1.0
176
     1
 90
        1
176
     1
 90
        6
176
     1
 90
        2
176
     1
 62
     7
176
     1
 90
        3
176
     1
 90
        0
176
     1
 90
        0
176
     1
290
     0
176
     1
 90
        1
176
     1
 40
0.0
176
     1
 90
        0
176
     1
290
     0
176
     1
290
     1
176
     1
290
     1
176
     1
290
     0
176
     1
290
     0
176
     1
290
     0
176
     1
290
     0
176
     1
290
     0
176
     1
290
     0
176
     1
 90
       50
176
     1
 40
0.0
176
     1
 40
1.0
176
     1
 90
        0
176
     1
 62
    18
420
        0
176
     1
 90
       50
176
     1
 90
        3
176
     1
 62
     5
420
      255
176
     1
290
     0
176
     1
 90
       50
176
     1
 90
       50
176
     1
 90
       50
176
     1
290
     0
176
     1
 90
       50
176
     1
 62
   256
176
     0
 40
1.0
176
     0
 90
        2
176
     1
  1
strokes_ogs.tif
176
     1
290
     0
176
     1
 40
1.0
176
     1
 40
1.0
176
     1
  0
VISUALSTYLE
  5
34
102
{ACAD_REACTORS
330
29
102
}
330
29
100
AcDbVisualStyle
  2
Dim
 70
    11
177
     3
291
     1
 70
    58
 90
        2
176
     1
 90
        2
176
     1
 90
        0
176
     1
 90
        0
176
     1
 40
0.6
176
     1
 40
30.0
176
     1
 62
     7
420
 16777215
176
     1
 90
        1
176
     1
 90
        4
176
     1
 62
     7
176
     1
 62
   257
176
     1
 90
        1
176
     1
 90
        1
176
     1
 40
1.0
176
     1
 90
        8
176
     1
 62
     7
176
     1
 40
1.0
176
     1
 90
        1
176
     1
 90
        6
176
     1
 90
        2
176
     1
 62
     7
176
     1
 90
        5
176
     1
 90
        0
176
     1
 90
        0
176
     1
290
     0
176
     1
 90
        1
176
     1
 40
-50.0
176
     1
 90
        0
176
     1
290
     0
176
     1
290
     1
176
     1
290
     1
176
     1
290
     0
176
     1
290
     0
176
     1
290
     0
176
     1
290
     0
176
     1
290
     0
176
     1
290
     0
176
     1
 90
       50
176
     1
 40
0.0
176
     1
 40
1.0
176
     1
 90
        0
176
     1
 62
    18
420
        0
176
     1
 90
       50
176
     1
 90
        3
176
     1
 62
     5
420
      255
176
     1
290
     0
176
     1
 90
       50
176
     1
 90
       50
176
     1
 90
       50
176
     1
290
     0
176
     1
 90
       50
176
     1
 62
   256
176
     0
 40
1.0
176
     0
 90
        2
176
     1
  1
strokes_ogs.tif
176
     1
290
     0
176
     1
 40
1.0
176
     1
 40
1.0
176
     1
  0
VISUALSTYLE
  5
41
102
{ACAD_REACTORS
330
29
102
}
330
29
100
AcDbVisualStyle
  2
EdgeColorOff
 70
    22
177
     3
291
     1
 70
    58
 90
        2
176
     0
 90
        2
176
     0
 90
        0
176
     0
 90
        0
176
     0
 40
0.6
176
     0
 40
30.0
176
     0
 62
     7
420
 16777215
176
     0
 90
        1
176
     0
 90
        4
176
     0
 62
     7
176
     0
 62
   257
176
     0
 90
        1
176
     0
 90
        1
176
     0
 40
1.0
176
     0
 90
        8
176
     2
 62
     7
176
     0
 40
1.0
176
     0
 90
        1
176
     0
 90
        6
176
     0
 90
        2
176
     0
 62
     7
176
     0
 90
        5
176
     0
 90
        0
176
     0
 90
        0
176
     0
290
     0
176
     0
 90
        1
176
     0
 40
0.0
176
     0
 90
        0
176
     0
290
     0
176
     0
290
     1
176
     0
290
     1
176
     0
290
     0
176
     0
290
     0
176
     0
290
     0
176
     0
290
     0
176
     0
290
     0
176
     0
290
     0
176
     0
 90
       50
176
     0
 40
0.0
176
     0
 40
1.0
176
     0
 90
        0
176
     0
 62
    18
420
        0
176
     0
 90
       50
176
     0
 90
        3
176
     0
 62
     5
420
      255
176
     0
290
     0
176
     0
 90
       50
176
     0
 90
       50
176
     0
 90
       50
176
     0
290
     0
176
     0
 90
       50
176
     0
 62
   256
176
     0
 40
1.0
176
     0
 90
        2
176
     0
  1
strokes_ogs.tif
176
     0
290
     0
176
     0
 40
1.0
176
     0
 40
1.0
176
     0
  0
VISUALSTYLE
  5
38
102
{ACAD_REACTORS
330
29
102
}
330
29
100
AcDbVisualStyle
  2
Facepattern
 70
    15
177
     3
291
     1
 70
    58
 90
        2
176
     1
 90
        2
176
     1
 90
        0
176
     1
 90
        0
176
     1
 40
0.6
176
     1
 40
30.0
176
     1
 62
     7
420
 16777215
176
     1
 90
        1
176
     1
 90
        4
176
     1
 62
     7
176
     1
 62
   257
176
     1
 90
        1
176
     1
 90
        1
176
     1
 40
1.0
176
     1
 90
        8
176
     1
 62
     7
176
     1
 40
1.0
176
     1
 90
        1
176
     1
 90
        6
176
     1
 90
        2
176
     1
 62
     7
176
     1
 90
        5
176
     1
 90
        0
176
     1
 90
        0
176
     1
290
     0
176
     1
 90
        1
176
     1
 40
0.0
176
     1
 90
        0
176
     1
290
     0
176
     1
290
     1
176
     1
290
     1
176
     1
290
     0
176
     1
290
     0
176
     1
290
     0
176
     1
290
     0
176
     1
290
     0
176
     1
290
     0
176
     1
 90
       50
176
     1
 40
0.0
176
     1
 40
1.0
176
     1
 90
        0
176
     1
 62
    18
420
        0
176
     1
 90
       50
176
     1
 90
        3
176
     1
 62
     5
420
      255
176
     1
290
     0
176
     1
 90
       50
176
     1
 90
       50
176
     1
 90
       50
176
     1
290
     0
176
     1
 90
       50
176
     1
 62
   256
176
     0
 40
1.0
176
     0
 90
        2
176
     1
  1
strokes_ogs.tif
176
     1
290
     0
176
     1
 40
1.0
176
     1
 40
1.0
176
     1
  0
VISUALSTYLE
  5
2A
102
{ACAD_REACTORS
330
29
102
}
330
29
100
AcDbVisualStyle
  2
Flat
 70
     0
177
     3
291
     1
 70
    58
 90
        2
176
     1
 90
        1
176
     1
 90
        1
176
     1
 90
        2
176
     1
 40
0.6
176
     1
 40
30.0
176
     1
 62
     7
420
 16777215
176
     1
 90
        0
176
     1
 90
        0
176
     1
 62
     7
176
     1
 62
   257
176
     1
 90
        1
176
     1
 90
        1
176
     1
 40
1.0
176
     1
 90
        8
176
     1
 62
     7
176
     1
 40
1.0
176
     1
 90
        1
176
     1
 90
        6
176
     1
 90
        2
176
     1
 62
     7
176
     1
 90
        5
176
     1
 90
        0
176
     1
 90
        0
176
     1
290
     0
176
     1
 90
       13
176
     1
 40
0.0
176
     1
 90
        0
176
     1
290
     0
176
     1
290
     1
176
     1
290
     1
176
     1
290
     0
176
     1
290
     0
176
     1
290
     0
176
     1
290
     0
176
     1
290
     0
176
     1
290
     0
176
     1
 90
       50
176
     1
 40
0.0
176
     1
 40
1.0
176
     1
 90
        0
176
     1
 62
    18
420
        0
176
     1
 90
       50
176
     1
 90
        3
176
     1
 62
     5
420
      255
176
     1
290
     0
176
     1
 90
       50
176
     1
 90
       50
176
     1
 90
       50
176
     1
290
     0
176
     1
 90
       50
176
     1
 62
   256
176
     0
 40
1.0
176
     0
 90
        2
176
     1
  1
strokes_ogs.tif
176
     1
290
     0
176
     1
 40
1.0
176
     1
 40
1.0
176
     1
  0
VISUALSTYLE
  5
2B
102
{ACAD_REACTORS
330
29
102
}
330
29
100
AcDbVisualStyle
  2
FlatWithEdges
 70
     1
177
     3
291
     1
 70
    58
 90
        2
176
     1
 90
        1
176
     1
 90
        1
176
     1
 90
        2
176
     1
 40
0.6
176
     1
 40
30.0
176
     1
 62
     7
420
 16777215
176
     1
 90
        1
176
     1
 90
        0
176
     1
 62
     7
176
     1
 62
   257
176
     1
 90
        1
176
     1
 90
        1
176
     1
 40
1.0
176
     1
 90
        0
176
     1
 62
   257
176
     1
 40
1.0
176
     1
 90
        1
176
     1
 90
        6
176
     1
 90
        2
176
     1
 62
     7
176
     1
 90
        5
176
     1
 90
        0
176
     1
 90
        0
176
     1
290
     0
176
     1
 90
       13
176
     1
 40
0.0
176
     1
 90
        0
176
     1
290
     0
176
     1
290
     1
176
     1
290
     1
176
     1
290
     0
176
     1
290
     0
176
     1
290
     0
176
     1
290
     0
176
     1
290
     0
176
     1
290
     0
176
     1
 90
       50
176
     1
 40
0.0
176
     1
 40
1.0
176
     1
 90
        0
176
     1
 62
    18
420
        0
176
     1
 90
       50
176
     1
 90
        3
176
     1
 62
     5
420
      255
176
     1
290
     0
176
     1
 90
       50
176
     1
 90
       50
176
     1
 90
       50
176
     1
290
     0
176
     1
 90
       50
176
     1
 62
   256
176
     0
 40
1.0
176
     0
 90
        2
176
     1
  1
strokes_ogs.tif
176
     1
290
     0
176
     1
 40
1.0
176
     1
 40
1.0
176
     1
  0
VISUALSTYLE
  5
2C
102
{ACAD_REACTORS
330
29
102
}
330
29
100
AcDbVisualStyle
  2
Gouraud
 70
     2
177
     3
291
     1
 70
    58
 90
        2
176
     1
 90
        2
176
     1
 90
        1
176
     1
 90
        2
176
     1
 40
0.6
176
     1
 40
30.0
176
     1
 62
     7
420
 16777215
176
     1
 90
        0
176
     1
 90
        0
176
     1
 62
     7
176
     1
 62
   257
176
     1
 90
        1
176
     1
 90
        1
176
     1
 40
1.0
176
     1
 90
        0
176
     1
 62
     7
176
     1
 40
1.0
176
     1
 90
        1
176
     1
 90
        6
176
     1
 90
        2
176
     1
 62
     7
176
     1
 90
        5
176
     1
 90
        0
176
     1
 90
        0
176
     1
290
     0
176
     1
 90
       13
176
     1
 40
0.0
176
     1
 90
        0
176
     1
290
     0
176
     1
290
     1
176
     1
290
     1
176
     1
290
     0
176
     1
290
     0
176
     1
290
     0
176
     1
290
     0
176
     1
290
     0
176
     1
290
     0
176
     1
 90
       50
176
     1
 40
0.0
176
     1
 40
1.0
176
     1
 90
        0
176
     1
 62
    18
420
        0
176
     1
 90
       50
176
     1
 90
        3
176
     1
 62
     5
420
      255
176
     1
290
     0
176
     1
 90
       50
176
     1
 90
       50
176
     1
 90
       50
176
     1
290
     0
176
     1
 90
       50
176
     1
 62
   256
176
     0
 40
1.0
176
     0
 90
        2
176
     1
  1
strokes_ogs.tif
176
     1
290
     0
176
     1
 40
1.0
176
     1
 40
1.0
176
     1
  0
VISUALSTYLE
  5
2D
102
{ACAD_REACTORS
330
29
102
}
330
29
100
AcDbVisualStyle
  2
GouraudWithEdges
 70
     3
177
     3
291
     1
 70
    58
 90
        2
176
     1
 90
        2
176
     1
 90
        1
176
     1
 90
        2
176
     1
 40
0.6
176
     1
 40
30.0
176
     1
 62
     7
420
 16777215
176
     1
 90
        1
176
     1
 90
        0
176
     1
 62
     7
176
     1
 62
   257
176
     1
 90
        1
176
     1
 90
        1
176
     1
 40
1.0
176
     1
 90
        0
176
     1
 62
   257
176
     1
 40
1.0
176
     1
 90
        1
176
     1
 90
        6
176
     1
 90
        2
176
     1
 62
     7
176
     1
 90
        5
176
     1
 90
        0
176
     1
 90
        0
176
     1
290
     0
176
     1
 90
       13
176
     1
 40
0.0
176
     1
 90
        0
176
     1
290
     0
176
     1
290
     1
176
     1
290
     1
176
     1
290
     0
176
     1
290
     0
176
     1
290
     0
176
     1
290
     0
176
     1
290
     0
176
     1
290
     0
176
     1
 90
       50
176
     1
 40
0.0
176
     1
 40
1.0
176
     1
 90
        0
176
     1
 62
    18
420
        0
176
     1
 90
       50
176
     1
 90
        3
176
     1
 62
     5
420
      255
176
     1
290
     0
176
     1
 90
       50
176
     1
 90
       50
176
     1
 90
       50
176
     1
290
     0
176
     1
 90
       50
176
     1
 62
   256
176
     0
 40
1.0
176
     0
 90
        2
176
     1
  1
strokes_ogs.tif
176
     1
290
     0
176
     1
 40
1.0
176
     1
 40
1.0
176
     1
  0
VISUALSTYLE
  5
31
102
{ACAD_REACTORS
330
29
102
}
330
29
100
AcDbVisualStyle
  2
Hidden
 70
     6
177
     3
291
     0
 70
    58
 90
        1
176
     1
 90
        2
176
     1
 90
        2
176
     1
 90
        0
176
     1
 40
0.6
176
     1
 40
30.0
176
     1
 62
     7
420
 16777215
176
     1
 90
        2
176
     1
 90
        2
176
     1
 62
     7
176
     1
 62
   257
176
     1
 90
        2
176
     1
 90
        1
176
     1
 40
40.0
176
     1
 90
        0
176
     1
 62
   257
176
     1
 40
1.0
176
     1
 90
        1
176
     1
 90
        6
176
     1
 90
        2
176
     1
 62
     7
176
     1
 90
        3
176
     1
 90
        0
176
     1
 90
        0
176
     1
290
     0
176
     1
 90
        1
176
     1
 40
0.0
176
     1
 90
        0
176
     1
290
     0
176
     1
290
     1
176
     1
290
     1
176
     1
290
     0
176
     1
290
     0
176
     1
290
     0
176
     1
290
     0
176
     1
290
     0
176
     1
290
     0
176
     1
 90
       50
176
     1
 40
0.0
176
     1
 40
1.0
176
     1
 90
        0
176
     1
 62
    18
420
        0
176
     1
 90
       50
176
     1
 90
        3
176
     1
 62
     5
420
      255
176
     1
290
     0
176
     1
 90
       50
176
     1
 90
       50
176
     1
 90
       50
176
     1
290
     0
176
     1
 90
       50
176
     1
 62
   256
176
     0
 40
1.0
176
     0
 90
        2
176
     1
  1
strokes_ogs.tif
176
     1
290
     0
176
     1
 40
1.0
176
     1
 40
1.0
176
     1
  0
VISUALSTYLE
  5
3F
102
{ACAD_REACTORS
330
29
102
}
330
29
100
AcDbVisualStyle
  2
JitterOff
 70
    20
177
     3
291
     1
 70
    58
 90
        2
176
     0
 90
        2
176
     0
 90
        0
176
     0
 90
        0
176
     0
 40
0.6
176
     0
 40
30.0
176
     0
 62
     7
420
 16777215
176
     0
 90
        1
176
     0
 90
        4
176
     0
 62
     7
176
     0
 62
   257
176
     0
 90
        1
176
     0
 90
        1
176
     0
 40
1.0
176
     0
 90
       10
176
     2
 62
     7
176
     0
 40
1.0
176
     0
 90
        1
176
     0
 90
        6
176
     0
 90
        2
176
     0
 62
     7
176
     0
 90
        5
176
     0
 90
        0
176
     0
 90
        0
176
     0
290
     0
176
     0
 90
        1
176
     0
 40
0.0
176
     0
 90
        0
176
     0
290
     0
176
     0
290
     1
176
     0
290
     1
176
     0
290
     0
176
     0
290
     0
176
     0
290
     0
176
     0
290
     0
176
     0
290
     0
176
     0
290
     0
176
     0
 90
       50
176
     0
 40
0.0
176
     0
 40
1.0
176
     0
 90
        0
176
     0
 62
    18
420
        0
176
     0
 90
       50
176
     0
 90
        3
176
     0
 62
     5
420
      255
176
     0
290
     0
176
     0
 90
       50
176
     0
 90
       50
176
     0
 90
       50
176
     0
290
     0
176
     0
 90
       50
176
     0
 62
   256
176
     0
 40
1.0
176
     0
 90
        2
176
     0
  1
strokes_ogs.tif
176
     0
290
     0
176
     0
 40
1.0
176
     0
 40
1.0
176
     0
  0
VISUALSTYLE
  5
37
102
{ACAD_REACTORS
330
29
102
}
330
29
100
AcDbVisualStyle
  2
Linepattern
 70
    14
177
     3
291
     1
 70
    58
 90
        2
176
     1
 90
        2
176
     1
 90
        0
176
     1
 90
        0
176
     1
 40
0.6
176
     1
 40
30.0
176
     1
 62
     7
420
 16777215
176
     1
 90
        1
176
     1
 90
        4
176
     1
 62
     7
176
     1
 62
   257
176
     1
 90
        7
176
     1
 90
        7
176
     1
 40
1.0
176
     1
 90
        8
176
     1
 62
     7
176
     1
 40
1.0
176
     1
 90
        1
176
     1
 90
        6
176
     1
 90
        2
176
     1
 62
     7
176
     1
 90
        5
176
     1
 90
        0
176
     1
 90
        0
176
     1
290
     0
176
     1
 90
        1
176
     1
 40
0.0
176
     1
 90
        0
176
     1
290
     0
176
     1
290
     1
176
     1
290
     1
176
     1
290
     0
176
     1
290
     0
176
     1
290
     0
176
     1
290
     0
176
     1
290
     0
176
     1
290
     0
176
     1
 90
       50
176
     1
 40
0.0
176
     1
 40
1.0
176
     1
 90
        0
176
     1
 62
    18
420
        0
176
     1
 90
       50
176
     1
 90
        3
176
     1
 62
     5
420
      255
176
     1
290
     0
176
     1
 90
       50
176
     1
 90
       50
176
     1
 90
       50
176
     1
290
     0
176
     1
 90
       50
176
     1
 62
   256
176
     0
 40
1.0
176
     0
 90
        2
176
     1
  1
strokes_ogs.tif
176
     1
290
     0
176
     1
 40
1.0
176
     1
 40
1.0
176
     1
  0
VISUALSTYLE
  5
40
102
{ACAD_REACTORS
330
29
102
}
330
29
100
AcDbVisualStyle
  2
OverhangOff
 70
    21
177
     3
291
     1
 70
    58
 90
        2
176
     0
 90
        2
176
     0
 90
        0
176
     0
 90
        0
176
     0
 40
0.6
176
     0
 40
30.0
176
     0
 62
     7
420
 16777215
176
     0
 90
        1
176
     0
 90
        4
176
     0
 62
     7
176
     0
 62
   257
176
     0
 90
        1
176
     0
 90
        1
176
     0
 40
1.0
176
     0
 90
        9
176
     2
 62
     7
176
     0
 40
1.0
176
     0
 90
        1
176
     0
 90
        6
176
     0
 90
        2
176
     0
 62
     7
176
     0
 90
        5
176
     0
 90
        0
176
     0
 90
        0
176
     0
290
     0
176
     0
 90
        1
176
     0
 40
0.0
176
     0
 90
        0
176
     0
290
     0
176
     0
290
     1
176
     0
290
     1
176
     0
290
     0
176
     0
290
     0
176
     0
290
     0
176
     0
290
     0
176
     0
290
     0
176
     0
290
     0
176
     0
 90
       50
176
     0
 40
0.0
176
     0
 40
1.0
176
     0
 90
        0
176
     0
 62
    18
420
        0
176
     0
 90
       50
176
     0
 90
        3
176
     0
 62
     5
420
      255
176
     0
290
     0
176
     0
 90
       50
176
     0
 90
       50
176
     0
 90
       50
176
     0
290
     0
176
     0
 90
       50
176
     0
 62
   256
176
     0
 40
1.0
176
     0
 90
        2
176
     0
  1
strokes_ogs.tif
176
     0
290
     0
176
     0
 40
1.0
176
     0
 40
1.0
176
     0
  0
VISUALSTYLE
  5
33
102
{ACAD_REACTORS
330
29
102
}
330
29
100
AcDbVisualStyle
  2
Realistic
 70
     8
177
     3
291
     0
 70
    58
 90
        2
176
     1
 90
        3
176
     1
 90
        0
176
     1
 90
        2
176
     1
 40
0.6
176
     1
 40
30.0
176
     1
 62
     7
420
 16777215
176
     1
 90
        0
176
     1
 90
        0
176
     1
 62
     7
176
     1
 62
   257
176
     1
 90
        1
176
     1
 90
        1
176
     1
 40
1.0
176
     1
 90
        8
176
     1
 62
   257
176
     1
 40
1.0
176
     1
 90
        1
176
     1
 90
        6
176
     1
 90
        2
176
     1
 62
     7
176
     1
 90
        3
176
     1
 90
        0
176
     1
 90
        0
176
     1
290
     0
176
     1
 90
       13
176
     1
 40
0.0
176
     1
 90
        0
176
     1
290
     0
176
     1
290
     1
176
     1
290
     1
176
     1
290
     0
176
     1
290
     0
176
     1
290
     0
176
     1
290
     0
176
     1
290
     0
176
     1
290
     0
176
     1
 90
       50
176
     1
 40
0.0
176
     1
 40
1.0
176
     1
 90
        0
176
     1
 62
    18
420
        0
176
     1
 90
       50
176
     1
 90
        3
176
     1
 62
     5
420
      255
176
     1
290
     0
176
     1
 90
       50
176
     1
 90
       50
176
     1
 90
       50
176
     1
290
     0
176
     1
 90
       50
176
     1
 62
   256
176
     0
 40
1.0
176
     0
 90
        2
176
     1
  1
strokes_ogs.tif
176
     1
290
     0
176
     1
 40
1.0
176
     1
 40
1.0
176
     1
  0
VISUALSTYLE
  5
3E
102
{ACAD_REACTORS
330
29
102
}
330
29
100
AcDbVisualStyle
  2
Shaded
 70
    27
177
     3
291
     0
 70
    58
 90
        2
176
     1
 90
        2
176
     1
 90
        1
176
     1
 90
        2
176
     1
 40
0.6
176
     1
 40
30.0
176
     1
 62
     7
420
 16777215
176
     1
 90
        0
176
     1
 90
        4
176
     1
 62
     7
176
     1
 62
   257
176
     1
 90
        1
176
     1
 90
        1
176
     1
 40
1.0
176
     1
 90
        8
176
     1
 62
   257
176
     1
 40
1.0
176
     1
 90
        1
176
     1
 90
        6
176
     1
 90
        2
176
     1
 62
     8
420
  7895160
176
     1
 90
        3
176
     1
 90
        0
176
     1
 90
        0
176
     1
290
     0
176
     1
 90
        5
176
     1
 40
0.0
176
     1
 90
        0
176
     1
290
     0
176
     1
290
     1
176
     1
290
     1
176
     1
290
     0
176
     1
290
     0
176
     1
290
     0
176
     1
290
     0
176
     1
290
     0
176
     1
290
     0
176
     1
 90
       50
176
     1
 40
0.0
176
     1
 40
1.0
176
     1
 90
        0
176
     1
 62
    18
420
        0
176
     1
 90
       50
176
     1
 90
        3
176
     1
 62
     5
420
      255
176
     1
290
     0
176
     1
 90
       50
176
     1
 90
       50
176
     1
 90
       50
176
     1
290
     0
176
     1
 90
       50
176
     1
 62
   256
176
     0
 40
1.0
176
     0
 90
        2
176
     1
  1
strokes_ogs.tif
176
     1
290
     0
176
     1
 40
1.0
176
     1
 40
1.0
176
     1
  0
VISUALSTYLE
  5
3D
102
{ACAD_REACTORS
330
29
102
}
330
29
100
AcDbVisualStyle
  2
Shaded with edges
 70
    26
177
     3
291
     0
 70
    58
 90
        2
176
     1
 90
        2
176
     1
 90
        1
176
     1
 90
        2
176
     1
 40
0.6
176
     1
 40
30.0
176
     1
 62
     7
420
 16777215
176
     1
 90
        1
176
     1
 90
        2
176
     1
 62
     7
176
     1
 62
   257
176
     1
 90
        2
176
     1
 90
        1
176
     1
 40
1.0
176
     1
 90
        8
176
     1
 62
   257
176
     1
 40
1.0
176
     1
 90
        1
176
     1
 90
        6
176
     1
 90
        2
176
     1
 62
     7
176
     1
 90
        3
176
     1
 90
        0
176
     1
 90
        0
176
     1
290
     0
176
     1
 90
        5
176
     1
 40
0.0
176
     1
 90
        0
176
     1
290
     0
176
     1
290
     1
176
     1
290
     1
176
     1
290
     0
176
     1
290
     0
176
     1
290
     0
176
     1
290
     0
176
     1
290
     0
176
     1
290
     0
176
     1
 90
       50
176
     1
 40
0.0
176
     1
 40
1.0
176
     1
 90
        0
176
     1
 62
    18
420
        0
176
     1
 90
       50
176
     1
 90
        3
176
     1
 62
     5
420
      255
176
     1
290
     0
176
     1
 90
       50
176
     1
 90
       50
176
     1
 90
       50
176
     1
290
     0
176
     1
 90
       50
176
     1
 62
   256
176
     0
 40
1.0
176
     0
 90
        2
176
     1
  1
strokes_ogs.tif
176
     1
290
     0
176
     1
 40
1.0
176
     1
 40
1.0
176
     1
  0
VISUALSTYLE
  5
3A
102
{ACAD_REACTORS
330
29
102
}
330
29
100
AcDbVisualStyle
  2
Shades of Gray
 70
    23
177
     3
291
     0
 70
    58
 90
        2
176
     1
 90
        2
176
     1
 90
        3
176
     1
 90
        0
176
     1
 40
0.6
176
     1
 40
30.0
176
     1
 62
     7
420
 16777215
176
     1
 90
        2
176
     1
 90
        2
176
     1
 62
     7
176
     1
 62
     7
176
     1
 90
        1
176
     1
 90
        1
176
     1
 40
40.0
176
     1
 90
        8
176
     1
 62
     7
176
     1
 40
1.0
176
     1
 90
        1
176
     1
 90
        6
176
     1
 90
        2
176
     1
 62
     7
176
     1
 90
        3
176
     1
 90
        0
176
     1
 90
        0
176
     1
290
     0
176
     1
 90
        1
176
     1
 40
0.0
176
     1
 90
        0
176
     1
290
     0
176
     1
290
     1
176
     1
290
     1
176
     1
290
     0
176
     1
290
     0
176
     1
290
     0
176
     1
290
     0
176
     1
290
     0
176
     1
290
     0
176
     1
 90
       50
176
     1
 40
0.0
176
     1
 40
1.0
176
     1
 90
        0
176
     1
 62
    18
420
        0
176
     1
 90
       50
176
     1
 90
        3
176
     1
 62
     5
420
      255
176
     1
290
     0
176
     1
 90
       50
176
     1
 90
       50
176
     1
 90
       50
176
     1
290
     0
176
     1
 90
       50
176
     1
 62
   256
176
     0
 40
1.0
176
     0
 90
        2
176
     1
  1
strokes_ogs.tif
176
     1
290
     0
176
     1
 40
1.0
176
     1
 40
1.0
176
     1
  0
VISUALSTYLE
  5
3B
102
{ACAD_REACTORS
330
29
102
}
330
29
100
AcDbVisualStyle
  2
Sketchy
 70
    24
177
     3
291
     0
 70
    58
 90
        1
176
     1
 90
        2
176
     1
 90
        2
176
     1
 90
        0
176
     1
 40
0.6
176
     1
 40
30.0
176
     1
 62
     7
420
 16777215
176
     1
 90
        2
176
     1
 90
        2
176
     1
 62
     7
176
     1
 62
     7
176
     1
 90
        1
176
     1
 90
        1
176
     1
 40
40.0
176
     1
 90
       11
176
     1
 62
     7
176
     1
 40
1.0
176
     1
 90
        1
176
     1
 90
        6
176
     1
 90
        2
176
     1
 62
     7
176
     1
 90
        6
176
     1
 90
        0
176
     1
 90
        0
176
     1
290
     0
176
     1
 90
        1
176
     1
 40
0.0
176
     1
 90
        0
176
     1
290
     0
176
     1
290
     1
176
     1
290
     1
176
     1
290
     0
176
     1
290
     0
176
     1
290
     0
176
     1
290
     0
176
     1
290
     0
176
     1
290
     0
176
     1
 90
       50
176
     1
 40
0.0
176
     1
 40
1.0
176
     1
 90
        0
176
     1
 62
    18
420
        0
176
     1
 90
       50
176
     1
 90
        3
176
     1
 62
     5
420
      255
176
     1
290
     0
176
     1
 90
       50
176
     1
 90
       50
176
     1
 90
       50
176
     1
290
     0
176
     1
 90
       50
176
     1
 62
   256
176
     0
 40
1.0
176
     0
 90
        2
176
     1
  1
strokes_ogs.tif
176
     1
290
     0
176
     1
 40
1.0
176
     1
 40
1.0
176
     1
  0
VISUALSTYLE
  5
36
102
{ACAD_REACTORS
330
29
102
}
330
29
100
AcDbVisualStyle
  2
Thicken
 70
    13
177
     3
291
     1
 70
    58
 90
        2
176
     1
 90
        2
176
     1
 90
        0
176
     1
 90
        0
176
     1
 40
0.6
176
     1
 40
30.0
176
     1
 62
     7
420
 16777215
176
     1
 90
        1
176
     1
 90
        4
176
     1
 62
     7
176
     1
 62
   257
176
     1
 90
        1
176
     1
 90
        1
176
     1
 40
1.0
176
     1
 90
       12
176
     1
 62
     7
176
     1
 40
1.0
176
     1
 90
        1
176
     1
 90
        6
176
     1
 90
        2
176
     1
 62
     7
176
     1
 90
        5
176
     1
 90
        0
176
     1
 90
        0
176
     1
290
     0
176
     1
 90
        1
176
     1
 40
0.0
176
     1
 90
        0
176
     1
290
     0
176
     1
290
     1
176
     1
290
     1
176
     1
290
     0
176
     1
290
     0
176
     1
290
     0
176
     1
290
     0
176
     1
290
     0
176
     1
290
     0
176
     1
 90
       50
176
     1
 40
0.0
176
     1
 40
1.0
176
     1
 90
        0
176
     1
 62
    18
420
        0
176
     1
 90
       50
176
     1
 90
        3
176
     1
 62
     5
420
      255
176
     1
290
     0
176
     1
 90
       50
176
     1
 90
       50
176
     1
 90
       50
176
     1
290
     0
176
     1
 90
       50
176
     1
 62
   256
176
     0
 40
1.0
176
     0
 90
        2
176
     1
  1
strokes_ogs.tif
176
     1
290
     0
176
     1
 40
1.0
176
     1
 40
1.0
176
     1
  0
VISUALSTYLE
  5
30
102
{ACAD_REACTORS
330
29
102
}
330
29
100
AcDbVisualStyle
  2
Wireframe
 70
     5
177
     3
291
     0
 70
    58
 90
        0
176
     1
 90
        2
176
     1
 90
        0
176
     1
 90
        0
176
     1
 40
0.6
176
     1
 40
30.0
176
     1
 62
     7
420
 16777215
176
     1
 90
        1
176
     1
 90
        4
176
     1
 62
     7
176
     1
 62
   257
176
     1
 90
        1
176
     1
 90
        1
176
     1
 40
1.0
176
     1
 90
        0
176
     1
 62
   257
176
     1
 40
1.0
176
     1
 90
        1
176
     1
 90
        6
176
     1
 90
        2
176
     1
 62
     7
176
     1
 90
        3
176
     1
 90
        0
176
     1
 90
        0
176
     1
290
     0
176
     1
 90
        1
176
     1
 40
0.0
176
     1
 90
        0
176
     1
290
     0
176
     1
290
     1
176
     1
290
     1
176
     1
290
     0
176
     1
290
     0
176
     1
290
     0
176
     1
290
     0
176
     1
290
     0
176
     1
290
     0
176
     1
 90
       50
176
     1
 40
0.0
176
     1
 40
1.0
176
     1
 90
        0
176
     1
 62
    18
420
        0
176
     1
 90
       50
176
     1
 90
        3
176
     1
 62
     5
420
      255
176
     1
290
     0
176
     1
 90
       50
176
     1
 90
       50
176
     1
 90
       50
176
     1
290
     0
176
     1
 90
       50
176
     1
 62
   256
176
     0
 40
1.0
176
     0
 90
        2
176
     1
  1
strokes_ogs.tif
176
     1
290
     0
176
     1
 40
1.0
176
     1
 40
1.0
176
     1
  0
VISUALSTYLE
  5
3C
102
{ACAD_REACTORS
330
29
102
}
330
29
100
AcDbVisualStyle
  2
X-Ray
 70
    25
177
     3
291
     0
 70
    58
 90
        2
176
     1
 90
        2
176
     1
 90
        1
176
     1
 90
        1
176
     1
 40
0.5
176
     1
 40
30.0
176
     1
 62
     7
420
 16777215
176
     1
 90
        1
176
     1
 90
        0
176
     1
 62
     7
176
     1
 62
   257
176
     1
 90
        1
176
     1
 90
        1
176
     1
 40
1.0
176
     1
 90
        8
176
     1
 62
     7
176
     1
 40
1.0
176
     1
 90
        1
176
     1
 90
        6
176
     1
 90
        2
176
     1
 62
     7
176
     1
 90
        3
176
     1
 90
        0
176
     1
 90
        0
176
     1
290
     0
176
     1
 90
       13
176
     1
 40
0.0
176
     1
 90
        0
176
     1
290
     0
176
     1
290
     1
176
     1
290
     1
176
     1
290
     0
176
     1
290
     0
176
     1
290
     0
176
     1
290
     0
176
     1
290
     0
176
     1
290
     0
176
     1
 90
       50
176
     1
 40
0.0
176
     1
 40
1.0
176
     1
 90
        0
176
     1
 62
    18
420
        0
176
     1
 90
       50
176
     1
 90
        3
176
     1
 62
     5
420
      255
176
     1
290
     0
176
     1
 90
       50
176
     1
 90
       50
176
     1
 90
       50
176
     1
290
     0
176
     1
 90
       50
176
     1
 62
   256
176
     0
 40
1.0
176
     0
 90
        2
176
     1
  1
strokes_ogs.tif
176
     1
290
     0
176
     1
 40
1.0
176
     1
 40
1.0
176
     1
  0
DICTIONARYVAR
  5
8E
102
{ACAD_REACTORS
330
89
102
}
330
89
100
DictionaryVariables
280
     0
  1
1:1
  0
DICTIONARYVAR
  5
8B
102
{ACAD_REACTORS
330
89
102
}
330
89
100
DictionaryVariables
280
     0
  1
STANDARD
  0
DICTIONARYVAR
  5
8A
102
{ACAD_REACTORS
330
89
102
}
330
89
100
DictionaryVariables
280
     0
  1
STANDARD
  0
DICTIONARYVAR
  5
8C
102
{ACAD_REACTORS
330
89
102
}
330
89
100
DictionaryVariables
280
     0
  1
Imperial24
  0
DICTIONARYVAR
  5
8D
102
{ACAD_REACTORS
330
89
102
}
330
89
100
DictionaryVariables
280
     0
  1
Imperial24
  0
DICTIONARY
  5
1A
330
19
100
AcDbDictionary
280
     1
281
     1
  3
BUMPTILE
360
1C
  3
DIFFUSETILE
360
1B
  3
OPACITYTILE
360
1F
  3
REFLECTIONTILE
360
1E
  3
REFRACTIONTILE
360
20
  3
SPECULARTILE
360
1D
  0
DICTIONARY
  5
12
330
11
100
AcDbDictionary
280
     1
281
     1
  3
BUMPTILE
360
14
  3
DIFFUSETILE
360
13
  3
OPACITYTILE
360
17
  3
REFLECTIONTILE
360
16
  3
REFRACTIONTILE
360
18
  3
SPECULARTILE
360
15
  0
DICTIONARY
  5
22
330
21
100
AcDbDictionary
280
     1
281
     1
  3
BUMPTILE
360
24
  3
DIFFUSETILE
360
23
  3
OPACITYTILE
360
27
  3
REFLECTIONTILE
360
26
  3
REFRACTIONTILE
360
28
  3
SPECULARTILE
360
25
  0
DICTIONARY
  5
8F
330
65
100
AcDbDictionary
280
     1
281
     1
  3
ACAD_ROUNDTRIP_2008_TABLESTYLE_CELLSTYLEMAP
360
90
  0
XRECORD
  5
1C
102
{ACAD_REACTORS
330
1A
102
}
330
1A
100
AcDbXrecord
280
     1
270
     1
271
     1
  0
XRECORD
  5
1B
102
{ACAD_REACTORS
330
1A
102
}
330
1A
100
AcDbXrecord
280
     1
270
     1
271
     1
  0
XRECORD
  5
1F
102
{ACAD_REACTORS
330
1A
102
}
330
1A
100
AcDbXrecord
280
     1
270
     1
271
     1
  0
XRECORD
  5
1E
102
{ACAD_REACTORS
330
1A
102
}
330
1A
100
AcDbXrecord
280
     1
270
     1
271
     1
  0
XRECORD
  5
20
102
{ACAD_REACTORS
330
1A
102
}
330
1A
100
AcDbXrecord
280
     1
270
     1
271
     1
  0
XRECORD
  5
1D
102
{ACAD_REACTORS
330
1A
102
}
330
1A
100
AcDbXrecord
280
     1
270
     1
271
     1
  0
XRECORD
  5
14
102
{ACAD_REACTORS
330
12
102
}
330
12
100
AcDbXrecord
280
     1
270
     1
271
     1
  0
XRECORD
  5
13
102
{ACAD_REACTORS
330
12
102
}
330
12
100
AcDbXrecord
280
     1
270
     1
271
     1
  0
XRECORD
  5
17
102
{ACAD_REACTORS
330
12
102
}
330
12
100
AcDbXrecord
280
     1
270
     1
271
     1
  0
XRECORD
  5
16
102
{ACAD_REACTORS
330
12
102
}
330
12
100
AcDbXrecord
280
     1
270
     1
271
     1
  0
XRECORD
  5
18
102
{ACAD_REACTORS
330
12
102
}
330
12
100
AcDbXrecord
280
     1
270
     1
271
     1
  0
XRECORD
  5
15
102
{ACAD_REACTORS
330
12
102
}
330
12
100
AcDbXrecord
280
     1
270
     1
271
     1
  0
XRECORD
  5
24
102
{ACAD_REACTORS
330
22
102
}
330
22
100
AcDbXrecord
280
     1
270
     1
271
     1
  0
XRECORD
  5
23
102
{ACAD_REACTORS
330
22
102
}
330
22
100
AcDbXrecord
280
     1
270
     1
271
     1
  0
XRECORD
  5
27
102
{ACAD_REACTORS
330
22
102
}
330
22
100
AcDbXrecord
280
     1
270
     1
271
     1
  0
XRECORD
  5
26
102
{ACAD_REACTORS
330
22
102
}
330
22
100
AcDbXrecord
280
     1
270
     1
271
     1
  0
XRECORD
  5
28
102
{ACAD_REACTORS
330
22
102
}
330
22
100
AcDbXrecord
280
     1
270
     1
271
     1
  0
XRECORD
  5
25
102
{ACAD_REACTORS
330
22
102
}
330
22
100
AcDbXrecord
280
     1
270
     1
271
     1
  0
CELLSTYLEMAP
  5
90
102
{ACAD_REACTORS
330
8F
102
}
330
8F
100
AcDbCellStyleMap
 90
        3
300
CELLSTYLE
  1
TABLEFORMAT_BEGIN
 90
        5
170
     1
 91
        0
 92
    32768
 62
   257
 93
        1
300
CONTENTFORMAT
  1
CONTENTFORMAT_BEGIN
 90
        0
 91
        0
 92
      512
 93
        0
300

 40
0.0
140
1.0
 94
        5
 62
     0
340
55
144
0.25
309
CONTENTFORMAT_END
171
     0
 94
        0
309
TABLEFORMAT_END
  1
CELLSTYLE_BEGIN
 90
        1
 91
        1
300
_TITLE
309
CELLSTYLE_END
300
CELLSTYLE
  1
TABLEFORMAT_BEGIN
 90
        5
170
     1
 91
        0
 92
        0
 62
   257
 93
        1
300
CONTENTFORMAT
  1
CONTENTFORMAT_BEGIN
 90
        0
 91
        0
 92
      512
 93
        0
300

 40
0.0
140
1.0
 94
        5
 62
     0
340
55
144
0.18
309
CONTENTFORMAT_END
171
     0
 94
        0
309
TABLEFORMAT_END
  1
CELLSTYLE_BEGIN
 90
        2
 91
        1
300
_HEADER
309
CELLSTYLE_END
300
CELLSTYLE
  1
TABLEFORMAT_BEGIN
 90
        5
170
     1
 91
        0
 92
        0
 62
   257
 93
        1
300
CONTENTFORMAT
  1
CONTENTFORMAT_BEGIN
 90
        0
 91
        0
 92
      512
 93
        0
300

 40
0.0
140
1.0
 94
        2
 62
     0
340
55
144
0.18
309
CONTENTFORMAT_END
171
     0
 94
        0
309
TABLEFORMAT_END
  1
CELLSTYLE_BEGIN
 90
        3
 91
        2
300
_DATA
309
CELLSTYLE_END
  0
ENDSEC
  0
EOF
